<svg width="24" height="24" viewBox="0 0 24 24" fill="none" xmlns="http://www.w3.org/2000/svg">
<path d="M4.85602 11.4281C4.74521 11.2361 4.59767 11.0677 4.4218 10.9327C4.24593 10.7976 4.04519 10.6986 3.83104 10.6411C3.61688 10.5837 3.39351 10.5689 3.17367 10.5978C2.95383 10.6267 2.74182 10.6986 2.54977 10.8094C2.35771 10.9202 2.18935 11.0677 2.05432 11.2436C1.91928 11.4195 1.82021 11.6202 1.76275 11.8344C1.70529 12.0485 1.69058 12.2719 1.71945 12.4917C1.74832 12.7116 1.82021 12.9236 1.93102 13.1156L5.39977 19.125C6.30405 20.657 7.77657 21.7701 9.49714 22.2223C11.2177 22.6744 13.0472 22.429 14.5878 21.5395C16.1285 20.6499 17.2556 19.1882 17.7243 17.472C18.1929 15.7559 17.9651 13.9241 17.0904 12.375L15.4966 9.60938C15.2591 9.25117 14.8939 8.99709 14.4754 8.89898C14.057 8.80086 13.6169 8.86611 13.2449 9.08141C12.8729 9.2967 12.5971 9.64582 12.4737 10.0575C12.3504 10.4692 12.3887 10.9125 12.581 11.2969" stroke="white" stroke-linecap="round" stroke-linejoin="round"/>
<path d="M4.85602 11.4281C4.74521 11.2361 4.59767 11.0677 4.4218 10.9327C4.24593 10.7976 4.04519 10.6986 3.83104 10.6411C3.61688 10.5837 3.39351 10.5689 3.17367 10.5978C2.95383 10.6267 2.74182 10.6986 2.54977 10.8094C2.35771 10.9202 2.18935 11.0677 2.05432 11.2436C1.91928 11.4195 1.82021 11.6202 1.76275 11.8344C1.70529 12.0485 1.69058 12.2719 1.71945 12.4917C1.74832 12.7116 1.82021 12.9236 1.93102 13.1156L5.39977 19.125C6.30405 20.657 7.77657 21.7701 9.49714 22.2223C11.2177 22.6744 13.0472 22.429 14.5878 21.5395C16.1285 20.6499 17.2556 19.1882 17.7243 17.472C18.1929 15.7559 17.9651 13.9241 17.0904 12.375L15.4966 9.60938C15.2591 9.25117 14.8939 8.99709 14.4754 8.89898C14.057 8.80086 13.6169 8.86611 13.2449 9.08141C12.8729 9.2967 12.5971 9.64582 12.4737 10.0575C12.3504 10.4692 12.3887 10.9125 12.581 11.2969" stroke="#131519" stroke-opacity="0.8" stroke-linecap="round" stroke-linejoin="round"/>
<path d="M10.0318 13.6406L6.4693 7.47187C6.35849 7.27981 6.21095 7.11146 6.03508 6.97642C5.85922 6.84138 5.65847 6.74231 5.44432 6.68485C5.23016 6.6274 5.00679 6.61269 4.78695 6.64156C4.56711 6.67043 4.35511 6.74232 4.16305 6.85312C3.97099 6.96392 3.80264 7.11147 3.6676 7.28733C3.53256 7.4632 3.43349 7.66394 3.37603 7.8781C3.31858 8.09225 3.30386 8.31563 3.33273 8.53547C3.3616 8.75531 3.43349 8.96731 3.5443 9.15937L7.1068 15.3281" stroke="white" stroke-linecap="round" stroke-linejoin="round"/>
<path d="M10.0318 13.6406L6.4693 7.47187C6.35849 7.27981 6.21095 7.11146 6.03508 6.97642C5.85922 6.84138 5.65847 6.74231 5.44432 6.68485C5.23016 6.6274 5.00679 6.61269 4.78695 6.64156C4.56711 6.67043 4.35511 6.74232 4.16305 6.85312C3.97099 6.96392 3.80264 7.11147 3.6676 7.28733C3.53256 7.4632 3.43349 7.66394 3.37603 7.8781C3.31858 8.09225 3.30386 8.31563 3.33273 8.53547C3.3616 8.75531 3.43349 8.96731 3.5443 9.15937L7.1068 15.3281" stroke="#131519" stroke-opacity="0.8" stroke-linecap="round" stroke-linejoin="round"/>
<path d="M14.0806 13.9031L10.1431 7.07812C9.91935 6.69024 9.55066 6.40714 9.11815 6.29111C8.68565 6.17507 8.22476 6.23559 7.83688 6.45937C7.449 6.68315 7.1659 7.05184 7.04986 7.48435C6.93383 7.91685 6.99435 8.37774 7.21813 8.76562" stroke="white" stroke-linecap="round" stroke-linejoin="round"/>
<path d="M14.0806 13.9031L10.1431 7.07812C9.91935 6.69024 9.55066 6.40714 9.11815 6.29111C8.68565 6.17507 8.22476 6.23559 7.83688 6.45937C7.449 6.68315 7.1659 7.05184 7.04986 7.48435C6.93383 7.91685 6.99435 8.37774 7.21813 8.76562" stroke="#131519" stroke-opacity="0.8" stroke-linecap="round" stroke-linejoin="round"/>
<path d="M9.28063 6.34688L8.315 4.66876C8.09123 4.28088 7.72253 3.99778 7.29003 3.88174C6.85752 3.7657 6.39663 3.82623 6.00875 4.05001C5.62087 4.27378 5.33778 4.64248 5.22174 5.07499C5.1057 5.50749 5.16623 5.96838 5.39 6.35626L5.615 6.74063" stroke="white" stroke-linecap="round" stroke-linejoin="round"/>
<path d="M9.28063 6.34688L8.315 4.66876C8.09123 4.28088 7.72253 3.99778 7.29003 3.88174C6.85752 3.7657 6.39663 3.82623 6.00875 4.05001C5.62087 4.27378 5.33778 4.64248 5.22174 5.07499C5.1057 5.50749 5.16623 5.96838 5.39 6.35626L5.615 6.74063" stroke="#131519" stroke-opacity="0.8" stroke-linecap="round" stroke-linejoin="round"/>
<path d="M17.6259 17.9531C18.7701 16.917 19.5253 15.5205 19.7657 13.9957C20.0062 12.471 19.7176 10.9098 18.9478 9.57187L17.3541 6.81562C17.2433 6.62356 17.0957 6.45521 16.9198 6.32017C16.744 6.18514 16.5432 6.08606 16.3291 6.0286C16.1149 5.97115 15.8916 5.95644 15.6717 5.98531C15.4519 6.01418 15.2399 6.08607 15.0478 6.19687C14.8558 6.30767 14.6874 6.45522 14.5524 6.63108C14.4173 6.80695 14.3183 7.00769 14.2608 7.22185C14.2033 7.436 14.1886 7.65938 14.2175 7.87922C14.2464 8.09906 14.3183 8.31106 14.4291 8.50312" stroke="white" stroke-linecap="round" stroke-linejoin="round"/>
<path d="M17.6259 17.9531C18.7701 16.917 19.5253 15.5205 19.7657 13.9957C20.0062 12.471 19.7176 10.9098 18.9478 9.57187L17.3541 6.81562C17.2433 6.62356 17.0957 6.45521 16.9198 6.32017C16.744 6.18514 16.5432 6.08606 16.3291 6.0286C16.1149 5.97115 15.8916 5.95644 15.6717 5.98531C15.4519 6.01418 15.2399 6.08607 15.0478 6.19687C14.8558 6.30767 14.6874 6.45522 14.5524 6.63108C14.4173 6.80695 14.3183 7.00769 14.2608 7.22185C14.2033 7.436 14.1886 7.65938 14.2175 7.87922C14.2464 8.09906 14.3183 8.31106 14.4291 8.50312" stroke="#131519" stroke-opacity="0.8" stroke-linecap="round" stroke-linejoin="round"/>
<path d="M14.6439 8.87812L11.9908 4.28437C11.767 3.89649 11.3983 3.6134 10.9658 3.49736C10.5333 3.38132 10.0724 3.44185 9.68454 3.66562C9.29666 3.8894 9.01356 4.2581 8.89752 4.6906C8.78148 5.12311 8.84201 5.58399 9.06578 5.97187" stroke="white" stroke-linecap="round" stroke-linejoin="round"/>
<path d="M14.6439 8.87812L11.9908 4.28437C11.767 3.89649 11.3983 3.6134 10.9658 3.49736C10.5333 3.38132 10.0724 3.44185 9.68454 3.66562C9.29666 3.8894 9.01356 4.2581 8.89752 4.6906C8.78148 5.12311 8.84201 5.58399 9.06578 5.97187" stroke="#131519" stroke-opacity="0.8" stroke-linecap="round" stroke-linejoin="round"/>
<path d="M16.5758 1.05937L16.1914 2.50312" stroke="white" stroke-linecap="round" stroke-linejoin="round"/>
<path d="M16.5758 1.05937L16.1914 2.50312" stroke="#131519" stroke-opacity="0.8" stroke-linecap="round" stroke-linejoin="round"/>
<path d="M19.4152 2.38126L18.5527 3.60938" stroke="white" stroke-linecap="round" stroke-linejoin="round"/>
<path d="M19.4152 2.38126L18.5527 3.60938" stroke="#131519" stroke-opacity="0.8" stroke-linecap="round" stroke-linejoin="round"/>
<path d="M21.6188 4.58438L20.3906 5.44688" stroke="white" stroke-linecap="round" stroke-linejoin="round"/>
<path d="M21.6188 4.58438L20.3906 5.44688" stroke="#131519" stroke-opacity="0.8" stroke-linecap="round" stroke-linejoin="round"/>
</svg>
