<svg width="32" height="32" viewBox="0 0 32 32" fill="none" xmlns="http://www.w3.org/2000/svg">
<path d="M16 22C19.3137 22 22 19.3137 22 16C22 12.6863 19.3137 10 16 10C12.6863 10 10 12.6863 10 16C10 19.3137 12.6863 22 16 22Z" stroke="white" stroke-linecap="round" stroke-linejoin="round"/>
<path d="M16 22C19.3137 22 22 19.3137 22 16C22 12.6863 19.3137 10 16 10C12.6863 10 10 12.6863 10 16C10 19.3137 12.6863 22 16 22Z" stroke="#131519" stroke-opacity="0.8" stroke-linecap="round" stroke-linejoin="round"/>
<path d="M18.5 13.5H17.5C17.3028 13.4992 17.1074 13.5374 16.925 13.6125C16.7426 13.6876 16.577 13.798 16.4375 13.9375C16.2981 14.0769 16.1876 14.2426 16.1125 14.425C16.0374 14.6074 15.9992 14.8028 16 15V22" stroke="white" stroke-linecap="round" stroke-linejoin="round"/>
<path d="M18.5 13.5H17.5C17.3028 13.4992 17.1074 13.5374 16.925 13.6125C16.7426 13.6876 16.577 13.798 16.4375 13.9375C16.2981 14.0769 16.1876 14.2426 16.1125 14.425C16.0374 14.6074 15.9992 14.8028 16 15V22" stroke="#131519" stroke-opacity="0.8" stroke-linecap="round" stroke-linejoin="round"/>
<path d="M14 17H18" stroke="white" stroke-linecap="round" stroke-linejoin="round"/>
<path d="M14 17H18" stroke="#131519" stroke-opacity="0.8" stroke-linecap="round" stroke-linejoin="round"/>
</svg>
