<svg width="398" height="398" viewBox="0 0 398 398" fill="none" xmlns="http://www.w3.org/2000/svg">
<path d="M0 199C0 89.0953 89.0953 0 199 0V0C308.905 0 398 89.0953 398 199V388.173C398 393.6 393.6 398 388.173 398H199C89.0953 398 0 308.905 0 199V199Z" fill="#131519"/>
<path d="M148.682 168L148.922 168.16L148.042 173H131.362C131.362 173 131.362 172.8 131.362 172.72C132.002 172.36 132.282 171.76 132.282 170.36V147.68C132.282 146.24 132.002 145.68 131.362 145.32C131.362 145.24 131.362 145 131.362 145H136.322C136.322 145 136.322 145.24 136.322 145.32C135.722 145.68 135.442 146.24 135.442 147.68V172.72H139.082C143.522 172.72 146.802 170.44 148.682 168ZM166.372 160.08C168.652 160.68 170.732 163 170.412 166.64C170.172 169.48 167.652 173.24 161.972 173.24C156.452 173.24 151.132 170.52 150.972 163.92C150.772 157 157.052 154 161.452 153.76C164.852 153.6 169.532 155.24 170.092 160.08C169.732 160.08 167.252 160.08 167.252 160.08H166.372ZM159.652 154.24C156.932 154.76 155.172 157.04 154.452 159.76H167.212C166.692 156.28 163.572 153.48 159.652 154.24ZM170.052 166.72C170.532 162.56 167.772 160.08 164.732 160.08H154.372C153.852 162.2 153.972 164.56 154.652 166.48C156.132 170.68 159.132 172.52 163.212 172.36C166.652 172.2 169.652 169.84 170.052 166.72ZM187.397 165.92L187.597 166C186.837 169.76 185.157 173.24 180.957 173.24C177.397 173.24 175.197 170.92 175.197 166.2V154.08H172.837V153.76C176.237 153.76 176.517 150.2 176.517 148.28H179.677C179.677 151.36 176.637 153.64 174.237 153.76H183.077V154.08H178.357V166.8C178.357 170.28 179.317 172.96 182.717 172.52C185.357 172.16 186.677 169 187.397 165.92ZM190.593 144.56C191.753 144.56 192.753 145.56 192.753 146.76C192.753 148.92 191.393 150.84 189.153 152.64L188.953 152.44C190.513 151.08 191.553 149.88 192.033 148.32C191.633 148.68 191.153 148.92 190.593 148.92C189.393 148.92 188.393 147.92 188.393 146.76C188.393 145.56 189.393 144.56 190.593 144.56ZM204.091 153.76C206.171 153.76 208.891 155.08 210.491 156.32L209.691 160H209.491C208.251 156.6 205.691 154.12 203.411 154.12C200.691 154.12 199.171 155.64 198.971 157.28C198.411 162.64 211.891 161.2 211.451 167.72C211.211 170.88 208.251 173.24 203.771 173.24C200.531 173.24 198.131 172.16 195.971 170.56L196.811 166.56H197.011C198.371 169.36 201.371 172.68 204.931 172.68C207.811 172.68 209.971 171.2 210.211 169.48C210.971 164.24 197.011 166.56 197.971 158.72C198.291 156.12 199.731 153.76 204.091 153.76ZM243.39 172.72C243.39 172.8 243.39 173 243.39 173H239.35V162.28C238.59 166.92 236.55 173.24 230.95 173.24C227.71 173.24 223.71 170.44 223.55 165.32C223.31 155.44 232.51 153.76 236.95 153.76C237.87 153.76 238.67 153.92 239.35 154.12V147.24C239.35 145.84 239.23 145.44 238.43 145.32C238.43 145.24 238.43 145 238.43 145L242.23 144.16H242.51V170.36C242.51 171.76 242.79 172.36 243.39 172.72ZM232.75 172.52C237.23 171.64 239.35 163.28 239.35 159.92V154.32C239.15 154.28 238.23 153.96 236.95 153.96C233.07 154.04 226.11 155.72 226.67 165.92C226.87 169.4 229.31 173.16 232.75 172.52ZM257.045 153.76C262.405 153.76 267.045 157.12 267.045 162.64C267.045 169.04 261.565 173.24 256.205 173.24C250.805 173.24 246.205 169.96 246.205 164.36C246.205 157.76 251.685 153.76 257.045 153.76ZM259.285 172.52C263.845 171.2 265.085 166.2 263.685 161.36C262.285 156.56 258.525 153.16 253.965 154.48C249.405 155.8 248.165 160.8 249.565 165.64C250.965 170.44 254.725 173.88 259.285 172.52ZM71.4544 193.76C73.5344 193.76 76.2544 195.08 77.8544 196.32L77.0544 200H76.8544C75.6144 196.6 73.0544 194.12 70.7744 194.12C68.0544 194.12 66.5344 195.64 66.3344 197.28C65.7744 202.64 79.2544 201.2 78.8144 207.72C78.5744 210.88 75.6144 213.24 71.1344 213.24C67.8944 213.24 65.4944 212.16 63.3344 210.56L64.1744 206.56H64.3744C65.7344 209.36 68.7344 212.68 72.2944 212.68C75.1744 212.68 77.3344 211.2 77.5744 209.48C78.3344 204.24 64.3744 206.56 65.3344 198.72C65.6544 196.12 67.0944 193.76 71.4544 193.76ZM92.1041 193.76C97.4641 193.76 102.104 197.12 102.104 202.64C102.104 209.04 96.6241 213.24 91.2641 213.24C85.8641 213.24 81.2641 209.96 81.2641 204.36C81.2641 197.76 86.7441 193.76 92.1041 193.76ZM94.3441 212.52C98.9041 211.2 100.144 206.2 98.7441 201.36C97.3441 196.56 93.5841 193.16 89.0241 194.48C84.4641 195.8 83.2241 200.8 84.6241 205.64C86.0241 210.44 89.7841 213.88 94.3441 212.52ZM134.137 210.36C134.297 211.8 134.657 212.36 135.257 212.72C135.257 212.8 135.257 213 135.257 213H130.337C130.337 213 130.337 212.8 130.337 212.72C130.937 212.36 131.137 211.68 131.017 210.36C130.857 209.04 130.297 202.28 130.097 200.2C129.777 197.2 128.617 193.8 125.497 194.48C121.817 195.28 121.337 201.48 121.297 205.68V210.36C121.297 211.76 121.577 212.36 122.177 212.72C122.177 212.8 122.177 213 122.177 213H117.257C117.257 213 117.257 212.8 117.257 212.72C117.857 212.36 118.137 211.76 118.137 210.36V200.2C118.137 197.16 116.737 193.88 113.617 194.48C109.137 195.32 108.937 203.68 108.937 207.08V210.36C108.937 211.76 109.257 212.36 109.857 212.72C109.857 212.8 109.857 213 109.857 213H104.897C104.897 213 104.897 212.8 104.897 212.72C105.497 212.36 105.817 211.76 105.817 210.36V196.84C105.817 195.44 105.697 195.04 104.897 194.92C104.897 194.84 104.897 194.64 104.897 194.64L108.657 193.76H108.937V202.64C109.377 198.4 110.577 193.76 115.377 193.76C118.457 193.76 121.097 196.4 121.257 200.8L121.297 201.24C121.777 197.36 123.257 193.76 127.297 193.76C130.457 193.76 132.697 196.12 133.177 200.8C133.617 204.68 133.977 208.88 134.137 210.36ZM152.72 200.08C155 200.68 157.08 203 156.76 206.64C156.52 209.48 154 213.24 148.32 213.24C142.8 213.24 137.48 210.52 137.32 203.92C137.12 197 143.4 194 147.8 193.76C151.2 193.6 155.88 195.24 156.44 200.08C156.08 200.08 153.6 200.08 153.6 200.08H152.72ZM146 194.24C143.28 194.76 141.52 197.04 140.8 199.76H153.56C153.04 196.28 149.92 193.48 146 194.24ZM156.4 206.72C156.88 202.56 154.12 200.08 151.08 200.08H140.72C140.2 202.2 140.32 204.56 141 206.48C142.48 210.68 145.48 212.52 149.56 212.36C153 212.2 156 209.84 156.4 206.72ZM173.744 205.92L173.944 206C173.184 209.76 171.504 213.24 167.304 213.24C163.744 213.24 161.544 210.92 161.544 206.2V194.08H159.184V193.76C162.584 193.76 162.864 190.2 162.864 188.28H166.024C166.024 191.36 162.984 193.64 160.584 193.76H169.424V194.08H164.704V206.8C164.704 210.28 165.664 212.96 169.064 212.52C171.704 212.16 173.024 209 173.744 205.92ZM193.381 210.36C193.541 211.8 193.901 212.36 194.501 212.72C194.501 212.8 194.501 213 194.501 213H189.581C189.581 213 189.581 212.8 189.581 212.72C190.181 212.36 190.381 211.68 190.261 210.36C190.101 209.04 189.541 202.28 189.341 200.2C189.021 197.2 187.541 193.8 184.101 194.48C179.621 195.36 178.821 203.72 178.821 207.08V210.36C178.821 211.76 179.101 212.36 179.701 212.72C179.701 212.8 179.701 213 179.701 213H174.741C174.741 213 174.741 212.8 174.741 212.72C175.381 212.36 175.661 211.76 175.661 210.36V187.24C175.661 185.84 175.541 185.44 174.741 185.32C174.741 185.24 174.741 185 174.741 185L178.501 184.16H178.821V203.68C179.301 199.2 180.701 193.76 185.901 193.76C189.141 193.76 191.941 196 192.421 200.8C192.861 204.68 193.221 208.88 193.381 210.36ZM200.538 210.36C200.538 211.76 200.818 212.36 201.458 212.72C201.458 212.8 201.458 213 201.458 213H196.498C196.498 213 196.498 212.8 196.498 212.72C197.098 212.36 197.378 211.76 197.378 210.36V196.84C197.378 195.44 197.258 195.04 196.498 194.92C196.498 194.84 196.498 194.64 196.498 194.64L200.258 193.76H200.538V210.36ZM198.858 190.52C197.818 190.52 196.978 189.68 196.978 188.64C196.978 187.6 197.818 186.76 198.858 186.76C199.898 186.76 200.738 187.6 200.738 188.64C200.738 189.68 199.898 190.52 198.858 190.52ZM222.912 210.36C223.072 211.8 223.432 212.36 224.032 212.72C224.032 212.8 224.032 213 224.032 213H219.072C219.072 213 219.072 212.8 219.072 212.72C219.712 212.36 219.872 211.68 219.752 210.36C219.632 209.04 219.032 202.28 218.832 200.2C218.552 197.2 217.072 193.8 213.632 194.48C209.152 195.36 208.312 203.72 208.312 207.08V210.36C208.312 211.76 208.592 212.36 209.232 212.72C209.232 212.8 209.232 213 209.232 213H204.272C204.272 213 204.272 212.8 204.272 212.72C204.872 212.36 205.152 211.76 205.152 210.36V196.84C205.152 195.44 205.032 195.04 204.272 194.92C204.272 194.84 204.272 194.64 204.272 194.64L208.032 193.76H208.312V203.68C208.832 199.2 210.192 193.76 215.392 193.76C218.672 193.76 221.472 196 221.952 200.8C222.352 204.68 222.752 208.88 222.912 210.36ZM246.75 211.92C249.15 211.88 250.07 213.24 250.07 215C250.07 218.16 246.07 220.2 242.67 220.2C239.79 220.2 238.39 218.64 237.43 217.32C235.59 218.44 233.59 219.48 231.71 219.6C229.59 219.76 227.99 219 227.95 217.16C227.87 214.72 231.71 213.4 234.51 213.12C229.83 212.56 226.03 209.44 226.03 204.36C226.03 197.76 231.55 193.76 236.91 193.76C238.51 193.76 240.03 194.08 241.39 194.64L248.23 192.64L248.47 194.64L242.03 194.92C244.91 196.32 246.91 199 246.91 202.64C246.91 209.04 241.43 213.24 236.03 213.24C235.91 213.24 235.79 213.24 235.63 213.2C232.99 213.32 229.91 214.24 230.11 216.64C230.19 217.96 230.87 218.92 232.35 218.92C234.39 218.96 236.71 217.4 239.27 215.84C242.23 214.08 244.71 212 246.75 211.92ZM229.43 205.64C230.83 210.44 234.59 213.88 239.15 212.52C243.67 211.2 244.95 206.2 243.55 201.36C242.15 196.56 238.39 193.16 233.83 194.48C229.27 195.8 228.03 200.8 229.43 205.64ZM247.63 215.68C247.71 213.84 247.23 212.48 245.63 212.72C244.39 212.88 241.83 214.6 239.51 216.04C238.91 216.4 238.31 216.76 237.71 217.12C238.47 218.24 239.71 219.88 242.67 219.92C245.75 219.96 247.47 218.32 247.63 215.68ZM264.553 206.48C266.033 210.68 269.433 212.92 273.473 212.52C277.433 212.12 279.593 208.6 280.233 207.48L280.473 207.6C279.233 209.84 276.873 212.96 272.113 213.24C266.593 213.52 261.073 210.52 260.913 203.92C260.713 197 266.993 193.76 271.393 193.76C273.673 193.76 276.873 194.8 278.953 195.88L278.353 199.2H278.113C277.153 196.8 273.353 193.36 269.593 194.24C264.673 195.36 262.873 201.68 264.553 206.48ZM293.706 193.76C299.066 193.76 303.706 197.12 303.706 202.64C303.706 209.04 298.226 213.24 292.866 213.24C287.466 213.24 282.866 209.96 282.866 204.36C282.866 197.76 288.346 193.76 293.706 193.76ZM295.946 212.52C300.506 211.2 301.746 206.2 300.346 201.36C298.946 196.56 295.186 193.16 290.626 194.48C286.066 195.8 284.826 200.8 286.226 205.64C287.626 210.44 291.386 213.88 295.946 212.52ZM317.338 193.76C322.698 193.76 327.338 197.12 327.338 202.64C327.338 209.04 321.858 213.24 316.498 213.24C311.098 213.24 306.498 209.96 306.498 204.36C306.498 197.76 311.978 193.76 317.338 193.76ZM319.578 212.52C324.138 211.2 325.378 206.2 323.978 201.36C322.578 196.56 318.818 193.16 314.258 194.48C309.698 195.8 308.458 200.8 309.858 205.64C311.258 210.44 315.018 213.88 319.578 212.52ZM334.171 210.36C334.171 211.76 334.451 212.36 335.051 212.72C335.051 212.8 335.051 213 335.051 213H330.131C330.131 213 330.131 212.8 330.131 212.72C330.731 212.36 331.011 211.76 331.011 210.36V187.24C331.011 185.84 330.891 185.44 330.131 185.32C330.131 185.24 330.131 185 330.131 185L333.891 184.16H334.171V210.36ZM138.06 225L139.34 229.88L139.1 230C137.3 227.96 134.78 225.32 130.34 225.32H129.46V250.36C129.46 251.76 129.78 252.36 130.38 252.72C130.38 252.8 130.38 253 130.38 253H125.42C125.42 253 125.42 252.8 125.42 252.72C126.02 252.36 126.34 251.76 126.34 250.36V225.32H125.46C121.02 225.32 118.5 227.96 116.7 230L116.46 229.88L117.74 225H138.06ZM149.389 233.76C154.749 233.76 159.389 237.12 159.389 242.64C159.389 249.04 153.909 253.24 148.549 253.24C143.149 253.24 138.549 249.96 138.549 244.36C138.549 237.76 144.029 233.76 149.389 233.76ZM151.629 252.52C156.189 251.2 157.429 246.2 156.029 241.36C154.629 236.56 150.869 233.16 146.309 234.48C141.749 235.8 140.509 240.8 141.909 245.64C143.309 250.44 147.069 253.88 151.629 252.52ZM182.902 251.92C185.302 251.88 186.222 253.24 186.222 255C186.222 258.16 182.222 260.2 178.822 260.2C175.942 260.2 174.542 258.64 173.582 257.32C171.742 258.44 169.742 259.48 167.862 259.6C165.742 259.76 164.142 259 164.102 257.16C164.022 254.72 167.862 253.4 170.662 253.12C165.982 252.56 162.182 249.44 162.182 244.36C162.182 237.76 167.702 233.76 173.062 233.76C174.662 233.76 176.182 234.08 177.542 234.64L184.382 232.64L184.622 234.64L178.182 234.92C181.062 236.32 183.062 239 183.062 242.64C183.062 249.04 177.582 253.24 172.182 253.24C172.062 253.24 171.942 253.24 171.782 253.2C169.142 253.32 166.062 254.24 166.262 256.64C166.342 257.96 167.022 258.92 168.502 258.92C170.542 258.96 172.862 257.4 175.422 255.84C178.382 254.08 180.862 252 182.902 251.92ZM165.582 245.64C166.982 250.44 170.742 253.88 175.302 252.52C179.822 251.2 181.102 246.2 179.702 241.36C178.302 236.56 174.542 233.16 169.982 234.48C165.422 235.8 164.182 240.8 165.582 245.64ZM183.782 255.68C183.862 253.84 183.382 252.48 181.782 252.72C180.542 252.88 177.982 254.6 175.662 256.04C175.062 256.4 174.462 256.76 173.862 257.12C174.622 258.24 175.862 259.88 178.822 259.92C181.902 259.96 183.622 258.32 183.782 255.68ZM201.645 240.08C203.925 240.68 206.005 243 205.685 246.64C205.445 249.48 202.925 253.24 197.245 253.24C191.725 253.24 186.405 250.52 186.245 243.92C186.045 237 192.325 234 196.725 233.76C200.125 233.6 204.805 235.24 205.365 240.08C205.005 240.08 202.525 240.08 202.525 240.08H201.645ZM194.925 234.24C192.205 234.76 190.445 237.04 189.725 239.76H202.485C201.965 236.28 198.845 233.48 194.925 234.24ZM205.325 246.72C205.805 242.56 203.045 240.08 200.005 240.08H189.645C189.125 242.2 189.245 244.56 189.925 246.48C191.405 250.68 194.405 252.52 198.485 252.36C201.925 252.2 204.925 249.84 205.325 246.72ZM222.67 245.92L222.87 246C222.11 249.76 220.43 253.24 216.23 253.24C212.67 253.24 210.47 250.92 210.47 246.2V234.08H208.11V233.76C211.51 233.76 211.79 230.2 211.79 228.28H214.95C214.95 231.36 211.91 233.64 209.51 233.76H218.35V234.08H213.63V246.8C213.63 250.28 214.59 252.96 217.99 252.52C220.63 252.16 221.95 249 222.67 245.92ZM242.306 250.36C242.466 251.8 242.826 252.36 243.426 252.72C243.426 252.8 243.426 253 243.426 253H238.506C238.506 253 238.506 252.8 238.506 252.72C239.106 252.36 239.306 251.68 239.186 250.36C239.026 249.04 238.466 242.28 238.266 240.2C237.946 237.2 236.466 233.8 233.026 234.48C228.546 235.36 227.746 243.72 227.746 247.08V250.36C227.746 251.76 228.026 252.36 228.626 252.72C228.626 252.8 228.626 253 228.626 253H223.666C223.666 253 223.666 252.8 223.666 252.72C224.306 252.36 224.586 251.76 224.586 250.36V227.24C224.586 225.84 224.466 225.44 223.666 225.32C223.666 225.24 223.666 225 223.666 225L227.426 224.16H227.746V243.68C228.226 239.2 229.626 233.76 234.826 233.76C238.066 233.76 240.866 236 241.346 240.8C241.786 244.68 242.146 248.88 242.306 250.36ZM260.864 240.08C263.144 240.68 265.224 243 264.904 246.64C264.664 249.48 262.144 253.24 256.464 253.24C250.944 253.24 245.624 250.52 245.464 243.92C245.264 237 251.544 234 255.944 233.76C259.344 233.6 264.024 235.24 264.584 240.08C264.224 240.08 261.744 240.08 261.744 240.08H260.864ZM254.144 234.24C251.424 234.76 249.664 237.04 248.944 239.76H261.704C261.184 236.28 258.064 233.48 254.144 234.24ZM264.544 246.72C265.024 242.56 262.264 240.08 259.224 240.08H248.864C248.344 242.2 248.464 244.56 249.144 246.48C250.624 250.68 253.624 252.52 257.704 252.36C261.144 252.2 264.144 249.84 264.544 246.72ZM277.569 233.76C279.729 233.76 280.969 234.52 282.329 236.12L279.889 239.56L279.609 239.4C279.529 237.12 278.409 234.16 276.249 234.48C272.329 235.08 271.809 245.4 271.809 248.8V250.36C271.809 251.76 272.089 252.36 272.689 252.72C272.689 252.8 272.689 253 272.689 253H267.729C267.729 253 267.729 252.8 267.729 252.72C268.369 252.36 268.649 251.76 268.649 250.36V236.84C268.649 235.44 268.529 235.04 267.729 234.92C267.729 234.84 267.729 234.64 267.729 234.64L271.489 233.76H271.809V244.48C272.209 239.64 273.329 233.76 277.569 233.76Z" fill="#F3F7FF"/>
<g filter="url(#filter0_b_764_4117)">
<rect x="179" y="310" width="204.012" height="73.7037" rx="36.8519" fill="#F3F7FF"/>
<path d="M210.097 352.352V342.17H211.33V351.258H216.063V352.352H210.097ZM221.015 352.511C220.279 352.511 219.644 352.348 219.111 352.024C218.58 351.696 218.171 351.238 217.883 350.652C217.598 350.062 217.455 349.375 217.455 348.593C217.455 347.811 217.598 347.122 217.883 346.525C218.171 345.925 218.572 345.458 219.086 345.123C219.603 344.785 220.206 344.616 220.896 344.616C221.293 344.616 221.686 344.682 222.074 344.815C222.462 344.947 222.815 345.163 223.133 345.461C223.451 345.756 223.704 346.147 223.893 346.634C224.082 347.122 224.177 347.722 224.177 348.434V348.931H218.29V347.917H222.984C222.984 347.486 222.897 347.102 222.725 346.764C222.556 346.426 222.314 346.159 221.999 345.963C221.688 345.768 221.32 345.67 220.896 345.67C220.428 345.67 220.024 345.786 219.682 346.018C219.344 346.247 219.084 346.545 218.902 346.913C218.72 347.281 218.628 347.675 218.628 348.096V348.772C218.628 349.349 218.728 349.838 218.927 350.239C219.129 350.637 219.409 350.94 219.767 351.149C220.125 351.354 220.541 351.457 221.015 351.457C221.323 351.457 221.601 351.414 221.85 351.328C222.102 351.238 222.319 351.106 222.501 350.93C222.684 350.751 222.824 350.529 222.924 350.264L224.057 350.582C223.938 350.966 223.738 351.304 223.456 351.596C223.174 351.884 222.826 352.11 222.412 352.272C221.998 352.431 221.532 352.511 221.015 352.511ZM229.283 344.715V345.71H225.325V344.715H229.283ZM226.479 342.886H227.652V350.164C227.652 350.496 227.7 350.744 227.796 350.91C227.896 351.072 228.021 351.182 228.174 351.238C228.33 351.291 228.494 351.318 228.666 351.318C228.795 351.318 228.901 351.311 228.984 351.298C229.067 351.281 229.133 351.268 229.183 351.258L229.422 352.312C229.342 352.342 229.231 352.372 229.089 352.402C228.946 352.435 228.766 352.451 228.547 352.451C228.215 352.451 227.891 352.38 227.572 352.237C227.257 352.095 226.996 351.878 226.787 351.586C226.581 351.295 226.479 350.927 226.479 350.482V342.886ZM232.478 342.17V343.065C232.478 343.337 232.428 343.627 232.329 343.935C232.233 344.24 232.09 344.536 231.901 344.825C231.716 345.11 231.49 345.358 231.225 345.571L230.589 345.054C230.798 344.755 230.978 344.445 231.131 344.124C231.287 343.799 231.364 343.453 231.364 343.085V342.17H232.478ZM238.357 346.426L237.303 346.724C237.237 346.548 237.139 346.378 237.01 346.212C236.884 346.043 236.711 345.904 236.493 345.794C236.274 345.685 235.994 345.63 235.652 345.63C235.185 345.63 234.796 345.738 234.484 345.953C234.176 346.165 234.022 346.436 234.022 346.764C234.022 347.055 234.128 347.286 234.34 347.455C234.552 347.624 234.883 347.765 235.334 347.877L236.468 348.156C237.151 348.322 237.659 348.575 237.994 348.916C238.329 349.255 238.496 349.69 238.496 350.224C238.496 350.661 238.37 351.053 238.118 351.397C237.87 351.742 237.522 352.014 237.074 352.213C236.627 352.411 236.107 352.511 235.513 352.511C234.734 352.511 234.09 352.342 233.579 352.004C233.069 351.666 232.746 351.172 232.61 350.522L233.723 350.244C233.83 350.655 234.03 350.963 234.325 351.169C234.623 351.374 235.013 351.477 235.493 351.477C236.04 351.477 236.474 351.361 236.796 351.129C237.121 350.893 237.283 350.612 237.283 350.284C237.283 350.018 237.19 349.796 237.005 349.617C236.819 349.435 236.534 349.299 236.15 349.21L234.877 348.911C234.178 348.746 233.664 348.489 233.336 348.141C233.011 347.79 232.848 347.35 232.848 346.823C232.848 346.393 232.969 346.011 233.211 345.68C233.457 345.348 233.79 345.088 234.211 344.899C234.635 344.71 235.116 344.616 235.652 344.616C236.408 344.616 237.001 344.782 237.432 345.113C237.866 345.445 238.175 345.882 238.357 346.426ZM252.552 345.352H251.319C251.246 344.997 251.119 344.686 250.936 344.417C250.757 344.149 250.539 343.923 250.28 343.741C250.025 343.555 249.742 343.416 249.43 343.323C249.118 343.231 248.794 343.184 248.456 343.184C247.839 343.184 247.281 343.34 246.78 343.652C246.283 343.963 245.887 344.422 245.592 345.029C245.3 345.635 245.154 346.379 245.154 347.261C245.154 348.143 245.3 348.887 245.592 349.493C245.887 350.1 246.283 350.559 246.78 350.87C247.281 351.182 247.839 351.338 248.456 351.338C248.794 351.338 249.118 351.291 249.43 351.198C249.742 351.106 250.025 350.968 250.28 350.786C250.539 350.6 250.757 350.373 250.936 350.105C251.119 349.833 251.246 349.521 251.319 349.17H252.552C252.459 349.69 252.29 350.156 252.045 350.567C251.8 350.978 251.495 351.328 251.13 351.616C250.766 351.901 250.356 352.118 249.902 352.267C249.451 352.416 248.969 352.491 248.456 352.491C247.587 352.491 246.815 352.279 246.139 351.855C245.463 351.43 244.931 350.827 244.543 350.045C244.155 349.263 243.961 348.335 243.961 347.261C243.961 346.187 244.155 345.259 244.543 344.477C244.931 343.695 245.463 343.091 246.139 342.667C246.815 342.243 247.587 342.031 248.456 342.031C248.969 342.031 249.451 342.105 249.902 342.255C250.356 342.404 250.766 342.622 251.13 342.911C251.495 343.196 251.8 343.544 252.045 343.955C252.29 344.362 252.459 344.828 252.552 345.352ZM257.488 352.511C256.798 352.511 256.193 352.347 255.673 352.019C255.156 351.691 254.752 351.232 254.46 350.642C254.172 350.052 254.027 349.362 254.027 348.573C254.027 347.778 254.172 347.084 254.46 346.49C254.752 345.897 255.156 345.436 255.673 345.108C256.193 344.78 256.798 344.616 257.488 344.616C258.177 344.616 258.78 344.78 259.297 345.108C259.818 345.436 260.222 345.897 260.51 346.49C260.802 347.084 260.948 347.778 260.948 348.573C260.948 349.362 260.802 350.052 260.51 350.642C260.222 351.232 259.818 351.691 259.297 352.019C258.78 352.347 258.177 352.511 257.488 352.511ZM257.488 351.457C258.011 351.457 258.442 351.323 258.78 351.054C259.118 350.786 259.369 350.433 259.531 349.995C259.693 349.558 259.775 349.084 259.775 348.573C259.775 348.063 259.693 347.587 259.531 347.147C259.369 346.706 259.118 346.349 258.78 346.078C258.442 345.806 258.011 345.67 257.488 345.67C256.964 345.67 256.533 345.806 256.195 346.078C255.857 346.349 255.607 346.706 255.444 347.147C255.282 347.587 255.201 348.063 255.201 348.573C255.201 349.084 255.282 349.558 255.444 349.995C255.607 350.433 255.857 350.786 256.195 351.054C256.533 351.323 256.964 351.457 257.488 351.457ZM263.912 347.758V352.352H262.739V344.715H263.872V345.909H263.972C264.151 345.521 264.423 345.209 264.787 344.974C265.152 344.735 265.622 344.616 266.199 344.616C266.716 344.616 267.169 344.722 267.556 344.934C267.944 345.143 268.246 345.461 268.461 345.889C268.677 346.313 268.784 346.85 268.784 347.5V352.352H267.611V347.579C267.611 346.979 267.455 346.512 267.144 346.177C266.832 345.839 266.405 345.67 265.861 345.67C265.487 345.67 265.152 345.751 264.857 345.914C264.565 346.076 264.335 346.313 264.166 346.625C263.997 346.936 263.912 347.314 263.912 347.758ZM272.102 347.758V352.352H270.928V344.715H272.062V345.909H272.161C272.34 345.521 272.612 345.209 272.977 344.974C273.341 344.735 273.812 344.616 274.389 344.616C274.906 344.616 275.358 344.722 275.746 344.934C276.134 345.143 276.435 345.461 276.651 345.889C276.866 346.313 276.974 346.85 276.974 347.5V352.352H275.801V347.579C275.801 346.979 275.645 346.512 275.333 346.177C275.022 345.839 274.594 345.67 274.051 345.67C273.676 345.67 273.341 345.751 273.046 345.914C272.755 346.076 272.524 346.313 272.355 346.625C272.186 346.936 272.102 347.314 272.102 347.758ZM282.32 352.511C281.584 352.511 280.949 352.348 280.415 352.024C279.885 351.696 279.476 351.238 279.187 350.652C278.902 350.062 278.76 349.375 278.76 348.593C278.76 347.811 278.902 347.122 279.187 346.525C279.476 345.925 279.877 345.458 280.391 345.123C280.908 344.785 281.511 344.616 282.2 344.616C282.598 344.616 282.991 344.682 283.378 344.815C283.766 344.947 284.119 345.163 284.437 345.461C284.756 345.756 285.009 346.147 285.198 346.634C285.387 347.122 285.481 347.722 285.481 348.434V348.931H279.595V347.917H284.288C284.288 347.486 284.202 347.102 284.03 346.764C283.861 346.426 283.619 346.159 283.304 345.963C282.992 345.768 282.624 345.67 282.2 345.67C281.733 345.67 281.329 345.786 280.987 346.018C280.649 346.247 280.389 346.545 280.207 346.913C280.024 347.281 279.933 347.675 279.933 348.096V348.772C279.933 349.349 280.033 349.838 280.231 350.239C280.434 350.637 280.714 350.94 281.072 351.149C281.43 351.354 281.846 351.457 282.32 351.457C282.628 351.457 282.906 351.414 283.155 351.328C283.407 351.238 283.624 351.106 283.806 350.93C283.988 350.751 284.129 350.529 284.229 350.264L285.362 350.582C285.243 350.966 285.042 351.304 284.761 351.596C284.479 351.884 284.131 352.11 283.717 352.272C283.302 352.431 282.837 352.511 282.32 352.511ZM290.369 352.511C289.653 352.511 289.036 352.342 288.519 352.004C288.002 351.666 287.604 351.2 287.326 350.607C287.047 350.014 286.908 349.336 286.908 348.573C286.908 347.798 287.051 347.113 287.336 346.52C287.624 345.924 288.025 345.458 288.539 345.123C289.056 344.785 289.659 344.616 290.349 344.616C290.886 344.616 291.369 344.715 291.8 344.914C292.231 345.113 292.584 345.392 292.859 345.75C293.134 346.107 293.305 346.525 293.371 347.002H292.198C292.109 346.654 291.91 346.346 291.601 346.078C291.297 345.806 290.886 345.67 290.369 345.67C289.911 345.67 289.51 345.789 289.165 346.028C288.824 346.263 288.557 346.596 288.365 347.027C288.176 347.455 288.082 347.957 288.082 348.534C288.082 349.124 288.174 349.637 288.36 350.075C288.549 350.512 288.814 350.852 289.155 351.094C289.5 351.336 289.905 351.457 290.369 351.457C290.673 351.457 290.95 351.404 291.199 351.298C291.447 351.192 291.658 351.039 291.83 350.84C292.003 350.642 292.125 350.403 292.198 350.125H293.371C293.305 350.575 293.141 350.981 292.879 351.343C292.621 351.701 292.278 351.986 291.85 352.198C291.426 352.406 290.932 352.511 290.369 352.511ZM298.408 344.715V345.71H294.45V344.715H298.408ZM295.604 342.886H296.777V350.164C296.777 350.496 296.825 350.744 296.921 350.91C297.021 351.072 297.146 351.182 297.299 351.238C297.455 351.291 297.619 351.318 297.791 351.318C297.92 351.318 298.026 351.311 298.109 351.298C298.192 351.281 298.258 351.268 298.308 351.258L298.547 352.312C298.467 352.342 298.356 352.372 298.214 352.402C298.071 352.435 297.891 352.451 297.672 352.451C297.34 352.451 297.016 352.38 296.697 352.237C296.382 352.095 296.121 351.878 295.912 351.586C295.706 351.295 295.604 350.927 295.604 350.482V342.886Z" fill="#131519"/>
<path d="M314.223 346.545C314.053 346.545 313.916 346.682 313.916 346.852C313.916 347.021 314.053 347.159 314.223 347.159V346.545ZM353.748 347.069C353.868 346.949 353.868 346.755 353.748 346.635L351.794 344.68C351.674 344.56 351.48 344.56 351.36 344.68C351.24 344.8 351.24 344.995 351.36 345.115L353.097 346.852L351.36 348.589C351.24 348.709 351.24 348.903 351.36 349.023C351.48 349.143 351.674 349.143 351.794 349.023L353.748 347.069ZM314.223 347.159H353.531V346.545H314.223V347.159Z" fill="#131519"/>
<rect x="179.307" y="310.307" width="203.398" height="73.0895" rx="36.5448" stroke="white" stroke-width="0.614198"/>
<rect x="179.307" y="310.307" width="203.398" height="73.0895" rx="36.5448" stroke="#131519" stroke-opacity="0.1" stroke-width="0.614198"/>
</g>
<defs>
<filter id="filter0_b_764_4117" x="139.691" y="270.691" width="282.63" height="152.321" filterUnits="userSpaceOnUse" color-interpolation-filters="sRGB">
<feFlood flood-opacity="0" result="BackgroundImageFix"/>
<feGaussianBlur in="BackgroundImageFix" stdDeviation="19.6543"/>
<feComposite in2="SourceAlpha" operator="in" result="effect1_backgroundBlur_764_4117"/>
<feBlend mode="normal" in="SourceGraphic" in2="effect1_backgroundBlur_764_4117" result="shape"/>
</filter>
</defs>
</svg>
