<svg width="10" height="9" viewBox="0 0 10 9" fill="none" xmlns="http://www.w3.org/2000/svg">
<path d="M3.9875 2C3.69376 1.54032 3.28903 1.16197 2.81062 0.899829C2.33222 0.637687 1.79552 0.500187 1.25 0.5C1.00744 0.91986 0.861897 1.38868 0.824046 1.87209C0.786195 2.3555 0.856993 2.84125 1.03125 3.29375C0.689504 3.79753 0.504644 4.39126 0.5 5V5.5C0.5 6.29565 0.816071 7.05871 1.37868 7.62132C1.94129 8.18393 2.70435 8.5 3.5 8.5H6.5C7.29565 8.5 8.05871 8.18393 8.62132 7.62132C9.18393 7.05871 9.5 6.29565 9.5 5.5V5C9.49536 4.39126 9.3105 3.79753 8.96875 3.29375C9.14301 2.84125 9.2138 2.3555 9.17595 1.87209C9.1381 1.38868 8.99256 0.91986 8.75 0.5C8.20448 0.500187 7.66778 0.637687 7.18937 0.899829C6.71097 1.16197 6.30624 1.54032 6.0125 2H3.9875Z" stroke="white" stroke-linecap="round" stroke-linejoin="round"/>
<path d="M3.9875 2C3.69376 1.54032 3.28903 1.16197 2.81062 0.899829C2.33222 0.637687 1.79552 0.500187 1.25 0.5C1.00744 0.91986 0.861897 1.38868 0.824046 1.87209C0.786195 2.3555 0.856993 2.84125 1.03125 3.29375C0.689504 3.79753 0.504644 4.39126 0.5 5V5.5C0.5 6.29565 0.816071 7.05871 1.37868 7.62132C1.94129 8.18393 2.70435 8.5 3.5 8.5H6.5C7.29565 8.5 8.05871 8.18393 8.62132 7.62132C9.18393 7.05871 9.5 6.29565 9.5 5.5V5C9.49536 4.39126 9.3105 3.79753 8.96875 3.29375C9.14301 2.84125 9.2138 2.3555 9.17595 1.87209C9.1381 1.38868 8.99256 0.91986 8.75 0.5C8.20448 0.500187 7.66778 0.637687 7.18937 0.899829C6.71097 1.16197 6.30624 1.54032 6.0125 2H3.9875Z" stroke="#131519" stroke-opacity="0.1" stroke-linecap="round" stroke-linejoin="round"/>
</svg>
