<svg width="2" height="2" viewBox="0 0 2 2" fill="none" xmlns="http://www.w3.org/2000/svg">
<path d="M1.6875 0.75C1.6875 0.991625 1.49162 1.1875 1.25 1.1875C1.00838 1.1875 0.8125 0.991625 0.8125 0.75C0.8125 0.508375 1.00838 0.3125 1.25 0.3125C1.49162 0.3125 1.6875 0.508375 1.6875 0.75Z" fill="#131519"/>
<path d="M1.6875 0.75C1.6875 0.991625 1.49162 1.1875 1.25 1.1875C1.00838 1.1875 0.8125 0.991625 0.8125 0.75C0.8125 0.508375 1.00838 0.3125 1.25 0.3125C1.49162 0.3125 1.6875 0.508375 1.6875 0.75Z" stroke="white" stroke-width="0.125"/>
<path d="M1.6875 0.75C1.6875 0.991625 1.49162 1.1875 1.25 1.1875C1.00838 1.1875 0.8125 0.991625 0.8125 0.75C0.8125 0.508375 1.00838 0.3125 1.25 0.3125C1.49162 0.3125 1.6875 0.508375 1.6875 0.75Z" stroke="#131519" stroke-opacity="0.1" stroke-width="0.125"/>
</svg>
