<svg width="41" height="6" viewBox="0 0 41 6" fill="none" xmlns="http://www.w3.org/2000/svg">
<path d="M1.22266 2.54471C1.05305 2.54471 0.915557 2.6822 0.915557 2.85181C0.915557 3.02141 1.05305 3.15891 1.22266 3.15891V2.54471ZM40.7485 3.06896C40.8684 2.94903 40.8684 2.75458 40.7485 2.63466L38.7941 0.68029C38.6742 0.560361 38.4797 0.560361 38.3598 0.68029C38.2399 0.80022 38.2399 0.994664 38.3598 1.11459L40.097 2.85181L38.3598 4.58902C38.2399 4.70895 38.2399 4.90339 38.3598 5.02332C38.4797 5.14325 38.6742 5.14325 38.7941 5.02332L40.7485 3.06896ZM1.22266 3.15891H40.5313V2.54471H1.22266V3.15891Z" fill="#131519"/>
</svg>
