<svg width="1" height="2" viewBox="0 0 1 2" fill="none" xmlns="http://www.w3.org/2000/svg">
<path d="M0.9375 1C0.9375 1.24162 0.741625 1.4375 0.5 1.4375C0.258375 1.4375 0.0625 1.24162 0.0625 1C0.0625 0.758375 0.258375 0.5625 0.5 0.5625C0.741625 0.5625 0.9375 0.758375 0.9375 1Z" fill="#131519"/>
<path d="M0.9375 1C0.9375 1.24162 0.741625 1.4375 0.5 1.4375C0.258375 1.4375 0.0625 1.24162 0.0625 1C0.0625 0.758375 0.258375 0.5625 0.5 0.5625C0.741625 0.5625 0.9375 0.758375 0.9375 1Z" stroke="white" stroke-width="0.125"/>
<path d="M0.9375 1C0.9375 1.24162 0.741625 1.4375 0.5 1.4375C0.258375 1.4375 0.0625 1.24162 0.0625 1C0.0625 0.758375 0.258375 0.5625 0.5 0.5625C0.741625 0.5625 0.9375 0.758375 0.9375 1Z" stroke="#131519" stroke-opacity="0.1" stroke-width="0.125"/>
</svg>
