<svg width="145" height="26" viewBox="0 0 145 26" fill="none" xmlns="http://www.w3.org/2000/svg">
<path d="M11.2715 11.2299C11.2715 11.2299 12.9571 9.7388 12.9571 7.10539C12.9571 4.47198 11.0026 1.22607 7.09365 1.22607C3.18475 1.22607 1.18705 4.65587 1.23018 7.10539C1.37732 15.4468 12.7877 10.5485 12.9571 18.6191C13.0557 23.3192 8.9435 24.7642 7.12422 24.774C5.17486 24.7842 1.27046 23.42 1.23018 18.6188C1.36832 16.1377 3.01225 14.6343 2.97078 14.6687" stroke="white" stroke-width="1.42715" stroke-miterlimit="10" stroke-linecap="round" stroke-linejoin="round"/>
<path d="M11.2715 11.2299C11.2715 11.2299 12.9571 9.7388 12.9571 7.10539C12.9571 4.47198 11.0026 1.22607 7.09365 1.22607C3.18475 1.22607 1.18705 4.65587 1.23018 7.10539C1.37732 15.4468 12.7877 10.5485 12.9571 18.6191C13.0557 23.3192 8.9435 24.7642 7.12422 24.774C5.17486 24.7842 1.27046 23.42 1.23018 18.6188C1.36832 16.1377 3.01225 14.6343 2.97078 14.6687" stroke="#131519" stroke-opacity="0.1" stroke-width="1.42715" stroke-miterlimit="10" stroke-linecap="round" stroke-linejoin="round"/>
<path d="M24.971 20.5V6.45351H30.3481C31.3632 6.45351 32.2068 6.61354 32.879 6.93361C33.5557 7.24911 34.061 7.6812 34.3947 8.22989C34.7331 8.77858 34.9023 9.40043 34.9023 10.0954C34.9023 10.667 34.7925 11.1562 34.5731 11.5632C34.3536 11.9656 34.0587 12.2925 33.6883 12.544C33.3179 12.7955 32.9041 12.9761 32.4469 13.0858V13.223C32.9453 13.2504 33.4231 13.4036 33.8803 13.6825C34.3422 13.9569 34.7194 14.3455 35.012 14.8485C35.3047 15.3514 35.451 15.9596 35.451 16.6729C35.451 17.3999 35.2749 18.0538 34.9229 18.6344C34.5708 19.2106 34.0404 19.6655 33.3316 19.9993C32.6229 20.3331 31.7313 20.5 30.6568 20.5H24.971ZM27.5155 18.3738H30.2521C31.1757 18.3738 31.841 18.1978 32.248 17.8457C32.6595 17.4891 32.8653 17.0318 32.8653 16.474C32.8653 16.0579 32.7624 15.6829 32.5566 15.3492C32.3509 15.0108 32.0582 14.7456 31.6787 14.5536C31.2992 14.3569 30.8465 14.2586 30.3207 14.2586H27.5155V18.3738ZM27.5155 12.4274H30.0326C30.4716 12.4274 30.8671 12.3474 31.2192 12.1873C31.5713 12.0227 31.8479 11.7918 32.0491 11.4946C32.2548 11.1928 32.3577 10.8362 32.3577 10.4247C32.3577 9.88054 32.1657 9.43244 31.7816 9.08036C31.4021 8.72829 30.8374 8.55225 30.0875 8.55225H27.5155V12.4274ZM41.3589 20.7126C40.6914 20.7126 40.0901 20.5937 39.5551 20.356C39.0247 20.1136 38.604 19.757 38.2931 19.286C37.9868 18.8151 37.8336 18.2344 37.8336 17.5439C37.8336 16.9495 37.9433 16.458 38.1628 16.0693C38.3823 15.6807 38.6818 15.3697 39.0613 15.1365C39.4408 14.9034 39.8683 14.7273 40.3439 14.6084C40.824 14.485 41.3201 14.3958 41.8322 14.3409C42.4495 14.2769 42.9501 14.2198 43.3342 14.1695C43.7183 14.1146 43.9972 14.0323 44.171 13.9226C44.3493 13.8083 44.4385 13.6322 44.4385 13.3944V13.3533C44.4385 12.8366 44.2853 12.4365 43.9789 12.153C43.6726 11.8695 43.2313 11.7278 42.6552 11.7278C42.0471 11.7278 41.5647 11.8604 41.208 12.1256C40.856 12.3908 40.6182 12.704 40.4947 13.0652L38.1765 12.736C38.3594 12.0959 38.6612 11.5609 39.0819 11.1311C39.5025 10.6967 40.0169 10.3721 40.6251 10.1572C41.2332 9.9377 41.9053 9.82796 42.6415 9.82796C43.149 9.82796 43.6543 9.8874 44.1573 10.0063C44.6602 10.1252 45.1198 10.3218 45.5358 10.5961C45.9519 10.8659 46.2857 11.234 46.5372 11.7004C46.7933 12.1668 46.9213 12.7497 46.9213 13.4493V20.5H44.5345V19.0528H44.4522C44.3013 19.3455 44.0887 19.6198 43.8143 19.8759C43.5446 20.1273 43.2039 20.3308 42.7924 20.4863C42.3854 20.6372 41.9076 20.7126 41.3589 20.7126ZM42.0036 18.8882C42.502 18.8882 42.9341 18.7899 43.2999 18.5933C43.6657 18.3921 43.9469 18.1269 44.1435 17.7977C44.3447 17.4685 44.4453 17.1095 44.4453 16.7209V15.4795C44.3676 15.5435 44.235 15.6029 44.0475 15.6578C43.8646 15.7127 43.6589 15.7607 43.4302 15.8018C43.2016 15.843 42.9753 15.8796 42.7512 15.9116C42.5272 15.9436 42.3329 15.971 42.1683 15.9939C41.7979 16.0442 41.4664 16.1265 41.1737 16.2408C40.8811 16.3551 40.6502 16.5151 40.481 16.7209C40.3118 16.9221 40.2273 17.1827 40.2273 17.5028C40.2273 17.96 40.3942 18.3052 40.7279 18.5384C41.0617 18.7716 41.487 18.8882 42.0036 18.8882ZM55.451 9.96513V11.8855H49.3948V9.96513H55.451ZM50.89 7.44115H53.3728V17.3313C53.3728 17.6651 53.4231 17.9212 53.5237 18.0995C53.6289 18.2732 53.766 18.3921 53.9352 18.4561C54.1044 18.5201 54.2919 18.5521 54.4976 18.5521C54.6531 18.5521 54.7948 18.5407 54.9229 18.5179C55.0555 18.495 55.156 18.4744 55.2246 18.4561L55.643 20.3971C55.5104 20.4428 55.3207 20.4931 55.0737 20.548C54.8314 20.6029 54.5342 20.6349 54.1821 20.644C53.5603 20.6623 53.0001 20.5686 52.5018 20.3628C52.0034 20.1525 51.6078 19.8279 51.3152 19.3889C51.0271 18.9499 50.8854 18.4013 50.89 17.7428V7.44115ZM58.3 20.5V9.96513H60.7828V20.5H58.3ZM59.5482 8.46995C59.155 8.46995 58.8167 8.33963 58.5332 8.079C58.2497 7.8138 58.1079 7.49602 58.1079 7.12565C58.1079 6.75071 58.2497 6.43293 58.5332 6.1723C58.8167 5.9071 59.155 5.7745 59.5482 5.7745C59.946 5.7745 60.2844 5.9071 60.5633 6.1723C60.8468 6.43293 60.9886 6.75071 60.9886 7.12565C60.9886 7.49602 60.8468 7.8138 60.5633 8.079C60.2844 8.33963 59.946 8.46995 59.5482 8.46995ZM66.5913 14.3272V20.5H64.1085V9.96513H66.4816V11.7552H66.605C66.8474 11.1654 67.2337 10.6967 67.7641 10.3492C68.2991 10.0017 68.9598 9.82796 69.7463 9.82796C70.4733 9.82796 71.1066 9.98342 71.6461 10.2943C72.1903 10.6053 72.6109 11.0557 72.9081 11.6455C73.2099 12.2353 73.3585 12.9509 73.3539 13.7923V20.5H70.8711V14.1763C70.8711 13.4722 70.6882 12.9212 70.3224 12.5234C69.9612 12.1256 69.4605 11.9267 68.8204 11.9267C68.386 11.9267 67.9996 12.0227 67.6613 12.2148C67.3275 12.4022 67.0646 12.6743 66.8725 13.0309C66.6851 13.3876 66.5913 13.8197 66.5913 14.3272ZM89.9572 10.3149C89.8932 9.71593 89.6234 9.24955 89.1479 8.91576C88.6769 8.58197 88.0642 8.41508 87.3098 8.41508C86.7794 8.41508 86.3244 8.49509 85.9449 8.65513C85.5654 8.81516 85.275 9.03235 85.0738 9.3067C84.8727 9.58105 84.7698 9.89426 84.7652 10.2463C84.7652 10.539 84.8315 10.7927 84.9641 11.0076C85.1013 11.2225 85.2865 11.4054 85.5197 11.5563C85.7528 11.7027 86.0112 11.8261 86.2947 11.9267C86.5782 12.0273 86.8639 12.1119 87.152 12.1805L88.4689 12.5097C88.9993 12.6331 89.5091 12.8 89.9983 13.0104C90.4922 13.2207 90.9334 13.4859 91.3221 13.806C91.7153 14.126 92.0262 14.5124 92.2548 14.9651C92.4835 15.4177 92.5978 15.9481 92.5978 16.5563C92.5978 17.3793 92.3874 18.104 91.9668 18.7305C91.5461 19.3523 90.938 19.8393 90.1424 20.1914C89.3513 20.5389 88.3934 20.7126 87.2686 20.7126C86.1758 20.7126 85.227 20.5434 84.4223 20.2051C83.6221 19.8667 82.9957 19.3729 82.543 18.7236C82.0949 18.0743 81.8526 17.2833 81.816 16.3505H84.3194C84.356 16.8398 84.5069 17.2467 84.7721 17.5714C85.0373 17.896 85.3825 18.1383 85.8077 18.2984C86.2375 18.4584 86.7176 18.5384 87.248 18.5384C87.8013 18.5384 88.286 18.4561 88.7021 18.2915C89.1227 18.1223 89.4519 17.8891 89.6897 17.5919C89.9275 17.2902 90.0486 16.9381 90.0532 16.5357C90.0486 16.1699 89.9412 15.8681 89.7309 15.6304C89.5205 15.388 89.2256 15.1868 88.8461 15.0268C88.4712 14.8622 88.0322 14.7159 87.5292 14.5879L85.9312 14.1763C84.7743 13.8791 83.8599 13.4287 83.1877 12.8252C82.5201 12.217 82.1864 11.41 82.1864 10.4041C82.1864 9.57647 82.4104 8.85174 82.8585 8.22989C83.3112 7.60804 83.9262 7.12565 84.7035 6.78272C85.4808 6.43522 86.361 6.26146 87.3441 6.26146C88.3408 6.26146 89.2142 6.43522 89.9641 6.78272C90.7185 7.12565 91.3106 7.60347 91.7404 8.21618C92.1702 8.82431 92.392 9.52389 92.4057 10.3149H89.9572ZM100.79 9.96513V11.8855H94.7335V9.96513H100.79ZM96.2287 7.44115H98.7115V17.3313C98.7115 17.6651 98.7618 17.9212 98.8624 18.0995C98.9675 18.2732 99.1047 18.3921 99.2739 18.4561C99.4431 18.5201 99.6305 18.5521 99.8363 18.5521C99.9918 18.5521 100.134 18.5407 100.262 18.5179C100.394 18.495 100.495 18.4744 100.563 18.4561L100.982 20.3971C100.849 20.4428 100.659 20.4931 100.412 20.548C100.17 20.6029 99.8729 20.6349 99.5208 20.644C98.899 20.6623 98.3388 20.5686 97.8404 20.3628C97.342 20.1525 96.9465 19.8279 96.6539 19.3889C96.3658 18.9499 96.2241 18.4013 96.2287 17.7428V7.44115ZM110.353 16.0693V9.96513H112.836V20.5H110.429V18.6276H110.319C110.081 19.2174 109.69 19.6998 109.146 20.0748C108.607 20.4497 107.941 20.6372 107.15 20.6372C106.46 20.6372 105.849 20.484 105.319 20.1776C104.793 19.8667 104.382 19.4163 104.084 18.8265C103.787 18.2321 103.639 17.5142 103.639 16.6729V9.96513H106.121V16.2888C106.121 16.9564 106.304 17.4868 106.67 17.88C107.036 18.2732 107.516 18.4698 108.111 18.4698C108.476 18.4698 108.831 18.3807 109.174 18.2024C109.517 18.024 109.798 17.7588 110.017 17.4068C110.241 17.0501 110.353 16.6043 110.353 16.0693ZM120.071 20.6852C119.244 20.6852 118.503 20.4726 117.849 20.0473C117.195 19.6221 116.678 19.0048 116.299 18.1955C115.919 17.3862 115.73 16.4031 115.73 15.2463C115.73 14.0757 115.922 13.0881 116.306 12.2833C116.694 11.474 117.218 10.8636 117.876 10.4521C118.535 10.036 119.269 9.82796 120.078 9.82796C120.695 9.82796 121.203 9.93312 121.601 10.1435C121.998 10.3492 122.314 10.5984 122.547 10.891C122.78 11.1791 122.961 11.4512 123.089 11.7072H123.192V6.45351H125.682V20.5H123.24V18.8402H123.089C122.961 19.0963 122.776 19.3683 122.533 19.6564C122.291 19.9399 121.971 20.1822 121.573 20.3834C121.175 20.5846 120.675 20.6852 120.071 20.6852ZM120.764 18.6482C121.29 18.6482 121.738 18.5064 122.108 18.2229C122.479 17.9349 122.76 17.5348 122.952 17.0227C123.144 16.5106 123.24 15.9139 123.24 15.2326C123.24 14.5513 123.144 13.9591 122.952 13.4562C122.764 12.9532 122.485 12.5623 122.115 12.2833C121.749 12.0044 121.299 11.865 120.764 11.865C120.211 11.865 119.749 12.009 119.378 12.2971C119.008 12.5851 118.729 12.9829 118.542 13.4905C118.354 13.998 118.261 14.5787 118.261 15.2326C118.261 15.891 118.354 16.4786 118.542 16.9952C118.734 17.5073 119.015 17.912 119.385 18.2092C119.76 18.5018 120.22 18.6482 120.764 18.6482ZM129.1 20.5V9.96513H131.583V20.5H129.1ZM130.348 8.46995C129.955 8.46995 129.617 8.33963 129.333 8.079C129.05 7.8138 128.908 7.49602 128.908 7.12565C128.908 6.75071 129.05 6.43293 129.333 6.1723C129.617 5.9071 129.955 5.7745 130.348 5.7745C130.746 5.7745 131.084 5.9071 131.363 6.1723C131.647 6.43293 131.788 6.75071 131.788 7.12565C131.788 7.49602 131.647 7.8138 131.363 8.079C131.084 8.33963 130.746 8.46995 130.348 8.46995ZM139.504 20.7058C138.475 20.7058 137.583 20.4794 136.829 20.0268C136.074 19.5741 135.489 18.9408 135.073 18.1269C134.661 17.313 134.456 16.362 134.456 15.2737C134.456 14.1855 134.661 13.2321 135.073 12.4137C135.489 11.5952 136.074 10.9596 136.829 10.507C137.583 10.0543 138.475 9.82796 139.504 9.82796C140.532 9.82796 141.424 10.0543 142.179 10.507C142.933 10.9596 143.516 11.5952 143.927 12.4137C144.344 13.2321 144.552 14.1855 144.552 15.2737C144.552 16.362 144.344 17.313 143.927 18.1269C143.516 18.9408 142.933 19.5741 142.179 20.0268C141.424 20.4794 140.532 20.7058 139.504 20.7058ZM139.517 18.7168C140.075 18.7168 140.542 18.5636 140.917 18.2572C141.291 17.9463 141.57 17.5302 141.753 17.009C141.941 16.4877 142.034 15.907 142.034 15.2669C142.034 14.6221 141.941 14.0392 141.753 13.5179C141.57 12.9921 141.291 12.5737 140.917 12.2628C140.542 11.9518 140.075 11.7964 139.517 11.7964C138.946 11.7964 138.47 11.9518 138.091 12.2628C137.716 12.5737 137.435 12.9921 137.247 13.5179C137.064 14.0392 136.973 14.6221 136.973 15.2669C136.973 15.907 137.064 16.4877 137.247 17.009C137.435 17.5302 137.716 17.9463 138.091 18.2572C138.47 18.5636 138.946 18.7168 139.517 18.7168Z" fill="white"/>
<path d="M24.971 20.5V6.45351H30.3481C31.3632 6.45351 32.2068 6.61354 32.879 6.93361C33.5557 7.24911 34.061 7.6812 34.3947 8.22989C34.7331 8.77858 34.9023 9.40043 34.9023 10.0954C34.9023 10.667 34.7925 11.1562 34.5731 11.5632C34.3536 11.9656 34.0587 12.2925 33.6883 12.544C33.3179 12.7955 32.9041 12.9761 32.4469 13.0858V13.223C32.9453 13.2504 33.4231 13.4036 33.8803 13.6825C34.3422 13.9569 34.7194 14.3455 35.012 14.8485C35.3047 15.3514 35.451 15.9596 35.451 16.6729C35.451 17.3999 35.2749 18.0538 34.9229 18.6344C34.5708 19.2106 34.0404 19.6655 33.3316 19.9993C32.6229 20.3331 31.7313 20.5 30.6568 20.5H24.971ZM27.5155 18.3738H30.2521C31.1757 18.3738 31.841 18.1978 32.248 17.8457C32.6595 17.4891 32.8653 17.0318 32.8653 16.474C32.8653 16.0579 32.7624 15.6829 32.5566 15.3492C32.3509 15.0108 32.0582 14.7456 31.6787 14.5536C31.2992 14.3569 30.8465 14.2586 30.3207 14.2586H27.5155V18.3738ZM27.5155 12.4274H30.0326C30.4716 12.4274 30.8671 12.3474 31.2192 12.1873C31.5713 12.0227 31.8479 11.7918 32.0491 11.4946C32.2548 11.1928 32.3577 10.8362 32.3577 10.4247C32.3577 9.88054 32.1657 9.43244 31.7816 9.08036C31.4021 8.72829 30.8374 8.55225 30.0875 8.55225H27.5155V12.4274ZM41.3589 20.7126C40.6914 20.7126 40.0901 20.5937 39.5551 20.356C39.0247 20.1136 38.604 19.757 38.2931 19.286C37.9868 18.8151 37.8336 18.2344 37.8336 17.5439C37.8336 16.9495 37.9433 16.458 38.1628 16.0693C38.3823 15.6807 38.6818 15.3697 39.0613 15.1365C39.4408 14.9034 39.8683 14.7273 40.3439 14.6084C40.824 14.485 41.3201 14.3958 41.8322 14.3409C42.4495 14.2769 42.9501 14.2198 43.3342 14.1695C43.7183 14.1146 43.9972 14.0323 44.171 13.9226C44.3493 13.8083 44.4385 13.6322 44.4385 13.3944V13.3533C44.4385 12.8366 44.2853 12.4365 43.9789 12.153C43.6726 11.8695 43.2313 11.7278 42.6552 11.7278C42.0471 11.7278 41.5647 11.8604 41.208 12.1256C40.856 12.3908 40.6182 12.704 40.4947 13.0652L38.1765 12.736C38.3594 12.0959 38.6612 11.5609 39.0819 11.1311C39.5025 10.6967 40.0169 10.3721 40.6251 10.1572C41.2332 9.9377 41.9053 9.82796 42.6415 9.82796C43.149 9.82796 43.6543 9.8874 44.1573 10.0063C44.6602 10.1252 45.1198 10.3218 45.5358 10.5961C45.9519 10.8659 46.2857 11.234 46.5372 11.7004C46.7933 12.1668 46.9213 12.7497 46.9213 13.4493V20.5H44.5345V19.0528H44.4522C44.3013 19.3455 44.0887 19.6198 43.8143 19.8759C43.5446 20.1273 43.2039 20.3308 42.7924 20.4863C42.3854 20.6372 41.9076 20.7126 41.3589 20.7126ZM42.0036 18.8882C42.502 18.8882 42.9341 18.7899 43.2999 18.5933C43.6657 18.3921 43.9469 18.1269 44.1435 17.7977C44.3447 17.4685 44.4453 17.1095 44.4453 16.7209V15.4795C44.3676 15.5435 44.235 15.6029 44.0475 15.6578C43.8646 15.7127 43.6589 15.7607 43.4302 15.8018C43.2016 15.843 42.9753 15.8796 42.7512 15.9116C42.5272 15.9436 42.3329 15.971 42.1683 15.9939C41.7979 16.0442 41.4664 16.1265 41.1737 16.2408C40.8811 16.3551 40.6502 16.5151 40.481 16.7209C40.3118 16.9221 40.2273 17.1827 40.2273 17.5028C40.2273 17.96 40.3942 18.3052 40.7279 18.5384C41.0617 18.7716 41.487 18.8882 42.0036 18.8882ZM55.451 9.96513V11.8855H49.3948V9.96513H55.451ZM50.89 7.44115H53.3728V17.3313C53.3728 17.6651 53.4231 17.9212 53.5237 18.0995C53.6289 18.2732 53.766 18.3921 53.9352 18.4561C54.1044 18.5201 54.2919 18.5521 54.4976 18.5521C54.6531 18.5521 54.7948 18.5407 54.9229 18.5179C55.0555 18.495 55.156 18.4744 55.2246 18.4561L55.643 20.3971C55.5104 20.4428 55.3207 20.4931 55.0737 20.548C54.8314 20.6029 54.5342 20.6349 54.1821 20.644C53.5603 20.6623 53.0001 20.5686 52.5018 20.3628C52.0034 20.1525 51.6078 19.8279 51.3152 19.3889C51.0271 18.9499 50.8854 18.4013 50.89 17.7428V7.44115ZM58.3 20.5V9.96513H60.7828V20.5H58.3ZM59.5482 8.46995C59.155 8.46995 58.8167 8.33963 58.5332 8.079C58.2497 7.8138 58.1079 7.49602 58.1079 7.12565C58.1079 6.75071 58.2497 6.43293 58.5332 6.1723C58.8167 5.9071 59.155 5.7745 59.5482 5.7745C59.946 5.7745 60.2844 5.9071 60.5633 6.1723C60.8468 6.43293 60.9886 6.75071 60.9886 7.12565C60.9886 7.49602 60.8468 7.8138 60.5633 8.079C60.2844 8.33963 59.946 8.46995 59.5482 8.46995ZM66.5913 14.3272V20.5H64.1085V9.96513H66.4816V11.7552H66.605C66.8474 11.1654 67.2337 10.6967 67.7641 10.3492C68.2991 10.0017 68.9598 9.82796 69.7463 9.82796C70.4733 9.82796 71.1066 9.98342 71.6461 10.2943C72.1903 10.6053 72.6109 11.0557 72.9081 11.6455C73.2099 12.2353 73.3585 12.9509 73.3539 13.7923V20.5H70.8711V14.1763C70.8711 13.4722 70.6882 12.9212 70.3224 12.5234C69.9612 12.1256 69.4605 11.9267 68.8204 11.9267C68.386 11.9267 67.9996 12.0227 67.6613 12.2148C67.3275 12.4022 67.0646 12.6743 66.8725 13.0309C66.6851 13.3876 66.5913 13.8197 66.5913 14.3272ZM89.9572 10.3149C89.8932 9.71593 89.6234 9.24955 89.1479 8.91576C88.6769 8.58197 88.0642 8.41508 87.3098 8.41508C86.7794 8.41508 86.3244 8.49509 85.9449 8.65513C85.5654 8.81516 85.275 9.03235 85.0738 9.3067C84.8727 9.58105 84.7698 9.89426 84.7652 10.2463C84.7652 10.539 84.8315 10.7927 84.9641 11.0076C85.1013 11.2225 85.2865 11.4054 85.5197 11.5563C85.7528 11.7027 86.0112 11.8261 86.2947 11.9267C86.5782 12.0273 86.8639 12.1119 87.152 12.1805L88.4689 12.5097C88.9993 12.6331 89.5091 12.8 89.9983 13.0104C90.4922 13.2207 90.9334 13.4859 91.3221 13.806C91.7153 14.126 92.0262 14.5124 92.2548 14.9651C92.4835 15.4177 92.5978 15.9481 92.5978 16.5563C92.5978 17.3793 92.3874 18.104 91.9668 18.7305C91.5461 19.3523 90.938 19.8393 90.1424 20.1914C89.3513 20.5389 88.3934 20.7126 87.2686 20.7126C86.1758 20.7126 85.227 20.5434 84.4223 20.2051C83.6221 19.8667 82.9957 19.3729 82.543 18.7236C82.0949 18.0743 81.8526 17.2833 81.816 16.3505H84.3194C84.356 16.8398 84.5069 17.2467 84.7721 17.5714C85.0373 17.896 85.3825 18.1383 85.8077 18.2984C86.2375 18.4584 86.7176 18.5384 87.248 18.5384C87.8013 18.5384 88.286 18.4561 88.7021 18.2915C89.1227 18.1223 89.4519 17.8891 89.6897 17.5919C89.9275 17.2902 90.0486 16.9381 90.0532 16.5357C90.0486 16.1699 89.9412 15.8681 89.7309 15.6304C89.5205 15.388 89.2256 15.1868 88.8461 15.0268C88.4712 14.8622 88.0322 14.7159 87.5292 14.5879L85.9312 14.1763C84.7743 13.8791 83.8599 13.4287 83.1877 12.8252C82.5201 12.217 82.1864 11.41 82.1864 10.4041C82.1864 9.57647 82.4104 8.85174 82.8585 8.22989C83.3112 7.60804 83.9262 7.12565 84.7035 6.78272C85.4808 6.43522 86.361 6.26146 87.3441 6.26146C88.3408 6.26146 89.2142 6.43522 89.9641 6.78272C90.7185 7.12565 91.3106 7.60347 91.7404 8.21618C92.1702 8.82431 92.392 9.52389 92.4057 10.3149H89.9572ZM100.79 9.96513V11.8855H94.7335V9.96513H100.79ZM96.2287 7.44115H98.7115V17.3313C98.7115 17.6651 98.7618 17.9212 98.8624 18.0995C98.9675 18.2732 99.1047 18.3921 99.2739 18.4561C99.4431 18.5201 99.6305 18.5521 99.8363 18.5521C99.9918 18.5521 100.134 18.5407 100.262 18.5179C100.394 18.495 100.495 18.4744 100.563 18.4561L100.982 20.3971C100.849 20.4428 100.659 20.4931 100.412 20.548C100.17 20.6029 99.8729 20.6349 99.5208 20.644C98.899 20.6623 98.3388 20.5686 97.8404 20.3628C97.342 20.1525 96.9465 19.8279 96.6539 19.3889C96.3658 18.9499 96.2241 18.4013 96.2287 17.7428V7.44115ZM110.353 16.0693V9.96513H112.836V20.5H110.429V18.6276H110.319C110.081 19.2174 109.69 19.6998 109.146 20.0748C108.607 20.4497 107.941 20.6372 107.15 20.6372C106.46 20.6372 105.849 20.484 105.319 20.1776C104.793 19.8667 104.382 19.4163 104.084 18.8265C103.787 18.2321 103.639 17.5142 103.639 16.6729V9.96513H106.121V16.2888C106.121 16.9564 106.304 17.4868 106.67 17.88C107.036 18.2732 107.516 18.4698 108.111 18.4698C108.476 18.4698 108.831 18.3807 109.174 18.2024C109.517 18.024 109.798 17.7588 110.017 17.4068C110.241 17.0501 110.353 16.6043 110.353 16.0693ZM120.071 20.6852C119.244 20.6852 118.503 20.4726 117.849 20.0473C117.195 19.6221 116.678 19.0048 116.299 18.1955C115.919 17.3862 115.73 16.4031 115.73 15.2463C115.73 14.0757 115.922 13.0881 116.306 12.2833C116.694 11.474 117.218 10.8636 117.876 10.4521C118.535 10.036 119.269 9.82796 120.078 9.82796C120.695 9.82796 121.203 9.93312 121.601 10.1435C121.998 10.3492 122.314 10.5984 122.547 10.891C122.78 11.1791 122.961 11.4512 123.089 11.7072H123.192V6.45351H125.682V20.5H123.24V18.8402H123.089C122.961 19.0963 122.776 19.3683 122.533 19.6564C122.291 19.9399 121.971 20.1822 121.573 20.3834C121.175 20.5846 120.675 20.6852 120.071 20.6852ZM120.764 18.6482C121.29 18.6482 121.738 18.5064 122.108 18.2229C122.479 17.9349 122.76 17.5348 122.952 17.0227C123.144 16.5106 123.24 15.9139 123.24 15.2326C123.24 14.5513 123.144 13.9591 122.952 13.4562C122.764 12.9532 122.485 12.5623 122.115 12.2833C121.749 12.0044 121.299 11.865 120.764 11.865C120.211 11.865 119.749 12.009 119.378 12.2971C119.008 12.5851 118.729 12.9829 118.542 13.4905C118.354 13.998 118.261 14.5787 118.261 15.2326C118.261 15.891 118.354 16.4786 118.542 16.9952C118.734 17.5073 119.015 17.912 119.385 18.2092C119.76 18.5018 120.22 18.6482 120.764 18.6482ZM129.1 20.5V9.96513H131.583V20.5H129.1ZM130.348 8.46995C129.955 8.46995 129.617 8.33963 129.333 8.079C129.05 7.8138 128.908 7.49602 128.908 7.12565C128.908 6.75071 129.05 6.43293 129.333 6.1723C129.617 5.9071 129.955 5.7745 130.348 5.7745C130.746 5.7745 131.084 5.9071 131.363 6.1723C131.647 6.43293 131.788 6.75071 131.788 7.12565C131.788 7.49602 131.647 7.8138 131.363 8.079C131.084 8.33963 130.746 8.46995 130.348 8.46995ZM139.504 20.7058C138.475 20.7058 137.583 20.4794 136.829 20.0268C136.074 19.5741 135.489 18.9408 135.073 18.1269C134.661 17.313 134.456 16.362 134.456 15.2737C134.456 14.1855 134.661 13.2321 135.073 12.4137C135.489 11.5952 136.074 10.9596 136.829 10.507C137.583 10.0543 138.475 9.82796 139.504 9.82796C140.532 9.82796 141.424 10.0543 142.179 10.507C142.933 10.9596 143.516 11.5952 143.927 12.4137C144.344 13.2321 144.552 14.1855 144.552 15.2737C144.552 16.362 144.344 17.313 143.927 18.1269C143.516 18.9408 142.933 19.5741 142.179 20.0268C141.424 20.4794 140.532 20.7058 139.504 20.7058ZM139.517 18.7168C140.075 18.7168 140.542 18.5636 140.917 18.2572C141.291 17.9463 141.57 17.5302 141.753 17.009C141.941 16.4877 142.034 15.907 142.034 15.2669C142.034 14.6221 141.941 14.0392 141.753 13.5179C141.57 12.9921 141.291 12.5737 140.917 12.2628C140.542 11.9518 140.075 11.7964 139.517 11.7964C138.946 11.7964 138.47 11.9518 138.091 12.2628C137.716 12.5737 137.435 12.9921 137.247 13.5179C137.064 14.0392 136.973 14.6221 136.973 15.2669C136.973 15.907 137.064 16.4877 137.247 17.009C137.435 17.5302 137.716 17.9463 138.091 18.2572C138.47 18.5636 138.946 18.7168 139.517 18.7168Z" fill="#131519" fill-opacity="0.1"/>
</svg>
