<svg width="32" height="32" viewBox="0 0 32 32" fill="none" xmlns="http://www.w3.org/2000/svg">
<rect width="32" height="32" rx="16" fill="white"/>
<rect width="32" height="32" rx="16" fill="#131519" fill-opacity="0.1"/>
<path d="M16.0003 13.5C16.0003 12.125 17.1566 10.9812 18.5316 11C19.0131 11.0056 19.4828 11.1501 19.8842 11.4162C20.2855 11.6823 20.6015 12.0586 20.7941 12.5H23.0003L20.9816 14.5187C20.8513 16.5466 19.9536 18.4487 18.4711 19.8384C16.9885 21.2281 15.0324 22.001 13.0003 22C11.0003 22 10.5003 21.25 10.5003 21.25C10.5003 21.25 12.5003 20.5 13.5003 19C13.5003 19 9.50034 17 10.5003 11.5C10.5003 11.5 13.0003 14 16.0003 14.5V13.5Z" stroke="white" stroke-linecap="round" stroke-linejoin="round"/>
<path d="M16.0003 13.5C16.0003 12.125 17.1566 10.9812 18.5316 11C19.0131 11.0056 19.4828 11.1501 19.8842 11.4162C20.2855 11.6823 20.6015 12.0586 20.7941 12.5H23.0003L20.9816 14.5187C20.8513 16.5466 19.9536 18.4487 18.4711 19.8384C16.9885 21.2281 15.0324 22.001 13.0003 22C11.0003 22 10.5003 21.25 10.5003 21.25C10.5003 21.25 12.5003 20.5 13.5003 19C13.5003 19 9.50034 17 10.5003 11.5C10.5003 11.5 13.0003 14 16.0003 14.5V13.5Z" stroke="#131519" stroke-opacity="0.8" stroke-linecap="round" stroke-linejoin="round"/>
</svg>
