<svg width="561" height="133" viewBox="0 0 561 133" fill="none" xmlns="http://www.w3.org/2000/svg">
<path d="M42.728 38.84C61.736 38.84 77.576 54.2 77.576 73.208C77.576 92.12 61.736 107.576 42.728 107.576C23.72 107.576 7.88 92.12 7.88 73.208C7.88 54.2 23.72 38.84 42.728 38.84ZM52.52 105.272C68.552 100.376 73.544 82.328 68.36 65.336C63.176 48.44 48.968 36.248 32.936 41.144C16.904 46.04 11.912 64.088 17.096 80.984C22.28 97.976 36.488 110.168 52.52 105.272ZM129.982 106.328C129.982 106.52 129.982 107 129.982 107H120.19V83.672C118.942 94.52 115.678 107.576 103.198 107.576C94.3663 107.576 87.3583 102.008 87.3583 90.68V68.216C87.3583 64.856 87.0703 63.896 85.2463 63.608C85.2463 63.416 85.2463 62.936 85.2463 62.936L94.2703 60.824H94.9423V92.12C94.9423 100.472 99.2623 107.384 107.518 105.848C118.27 103.736 120.19 83.672 120.19 75.608V68.216C120.19 64.856 119.902 63.896 118.078 63.608C118.078 63.416 118.078 62.936 118.078 62.936L127.102 60.824H127.774V100.664C127.774 104.024 128.446 105.464 129.982 106.328ZM160.331 60.824C165.515 60.824 168.491 62.648 171.755 66.488L165.899 74.744L165.227 74.36C165.035 68.888 162.347 61.784 157.163 62.552C147.755 63.992 146.507 88.76 146.507 96.92V100.664C146.507 104.024 147.179 105.464 148.619 106.328C148.619 106.52 148.619 107 148.619 107H136.715C136.715 107 136.715 106.52 136.715 106.328C138.251 105.464 138.923 104.024 138.923 100.664V68.216C138.923 64.856 138.635 63.896 136.715 63.608C136.715 63.416 136.715 62.936 136.715 62.936L145.739 60.824H146.507V86.552C147.467 74.936 150.155 60.824 160.331 60.824ZM212.242 39.8C231.154 39.8 243.73 45.848 243.73 59.48C243.73 73.016 231.154 79.064 212.242 79.064H207.538V100.664C207.538 104.024 208.21 105.464 209.65 106.328C209.65 106.52 209.65 107 209.65 107H197.746C197.746 107 197.746 106.52 197.746 106.328C199.282 105.464 199.954 104.024 199.954 100.664V46.232C199.954 42.776 199.282 41.432 197.746 40.568C197.746 40.376 197.746 39.8 197.746 39.8H212.242ZM212.242 78.296C229.522 78.296 236.146 70.712 236.146 59.48C236.146 48.152 229.522 40.568 212.242 40.568H207.538V78.296H212.242ZM272.175 60.824C277.359 60.824 280.335 62.648 283.599 66.488L277.743 74.744L277.071 74.36C276.879 68.888 274.191 61.784 269.007 62.552C259.599 63.992 258.351 88.76 258.351 96.92V100.664C258.351 104.024 259.023 105.464 260.463 106.328C260.463 106.52 260.463 107 260.463 107H248.559C248.559 107 248.559 106.52 248.559 106.328C250.095 105.464 250.767 104.024 250.767 100.664V68.216C250.767 64.856 250.479 63.896 248.559 63.608C248.559 63.416 248.559 62.936 248.559 62.936L257.583 60.824H258.351V86.552C259.311 74.936 261.999 60.824 272.175 60.824ZM311.606 60.824C324.47 60.824 335.606 68.888 335.606 82.136C335.606 97.496 322.454 107.576 309.59 107.576C296.63 107.576 285.59 99.704 285.59 86.264C285.59 70.424 298.742 60.824 311.606 60.824ZM316.982 105.848C327.926 102.68 330.902 90.68 327.542 79.064C324.182 67.544 315.158 59.384 304.214 62.552C293.27 65.72 290.294 77.72 293.654 89.336C297.014 100.856 306.038 109.112 316.982 105.848ZM350.322 60.824H350.994V107.288C350.994 123.896 341.97 128.888 333.042 132.632L332.754 131.672C341.298 127.64 343.41 124.184 343.41 108.344V68.216C343.41 64.856 343.122 63.896 341.298 63.608C341.298 63.416 341.298 62.936 341.298 62.936L350.322 60.824ZM346.866 53.048C344.466 53.048 342.45 51.032 342.45 48.536C342.45 46.04 344.466 44.024 346.866 44.024C349.362 44.024 351.378 46.04 351.378 48.536C351.378 51.032 349.362 53.048 346.866 53.048ZM397.084 75.992C402.556 77.432 407.548 83 406.78 91.736C406.204 98.552 400.156 107.576 386.524 107.576C373.276 107.576 360.508 101.048 360.124 85.208C359.644 68.6 374.716 61.4 385.276 60.824C393.436 60.44 404.667 64.376 406.012 75.992C405.148 75.992 399.196 75.992 399.196 75.992H397.084ZM380.956 61.976C374.428 63.224 370.204 68.696 368.476 75.224H399.1C397.852 66.872 390.364 60.152 380.956 61.976ZM405.916 91.928C407.068 81.944 400.444 75.992 393.148 75.992H368.284C367.036 81.08 367.324 86.744 368.956 91.352C372.508 101.432 379.708 105.848 389.5 105.464C397.756 105.08 404.956 99.416 405.916 91.928ZM422.391 91.352C425.943 101.432 434.103 106.808 443.799 105.848C453.303 104.888 458.487 96.44 460.023 93.752L460.599 94.04C457.623 99.416 451.959 106.904 440.535 107.576C427.287 108.248 414.039 101.048 413.655 85.208C413.175 68.6 428.247 60.824 438.807 60.824C444.279 60.824 451.959 63.32 456.951 65.912L455.511 73.88H454.935C452.631 68.12 443.511 59.864 434.487 61.976C422.679 64.664 418.359 79.832 422.391 91.352ZM499.387 90.008L499.867 90.2C498.043 99.224 494.011 107.576 483.931 107.576C475.387 107.576 470.107 102.008 470.107 90.68V61.592H464.443V60.824C472.603 60.824 473.275 52.28 473.275 47.672H480.859C480.859 55.064 473.562 60.536 467.803 60.824H489.019V61.592H477.691V92.12C477.691 100.472 479.995 106.904 488.155 105.848C494.491 104.984 497.659 97.4 499.387 90.008ZM520.328 60.824C525.32 60.824 531.848 63.992 535.688 66.968L533.768 75.8H533.288C530.312 67.64 524.168 61.688 518.696 61.688C512.168 61.688 508.52 65.336 508.04 69.272C506.696 82.136 539.048 78.68 537.992 94.328C537.416 101.912 530.312 107.576 519.56 107.576C511.784 107.576 506.024 104.984 500.84 101.144L502.856 91.544H503.336C506.6 98.264 513.8 106.232 522.344 106.232C529.256 106.232 534.44 102.68 535.016 98.552C536.84 85.976 503.336 91.544 505.64 72.728C506.408 66.488 509.864 60.824 520.328 60.824Z" fill="#F7F7F7"/>
</svg>
