<svg width="203" height="8" viewBox="0 0 203 8" fill="none" xmlns="http://www.w3.org/2000/svg">
<path d="M0.5 3.5C0.223858 3.5 0 3.72386 0 4C0 4.27614 0.223858 4.5 0.5 4.5V3.5ZM202.854 4.35355C203.049 4.15829 203.049 3.84171 202.854 3.64645L199.672 0.464466C199.476 0.269204 199.16 0.269204 198.964 0.464466C198.769 0.659728 198.769 0.976311 198.964 1.17157L201.793 4L198.964 6.82843C198.769 7.02369 198.769 7.34027 198.964 7.53553C199.16 7.7308 199.476 7.7308 199.672 7.53553L202.854 4.35355ZM0.5 4.5H202.5V3.5H0.5V4.5Z" fill="#131519"/>
</svg>
