<svg width="648" height="648" viewBox="0 0 648 648" fill="none" xmlns="http://www.w3.org/2000/svg">
<path d="M0 324C0 145.06 145.06 0 324 0V0C502.94 0 648 145.06 648 324V632C648 640.837 640.837 648 632 648H324C145.06 648 0 502.94 0 324V324Z" fill="#131519"/>
<path d="M232.927 268L233.359 268.288L231.775 277H201.751C201.751 277 201.751 276.64 201.751 276.496C202.903 275.848 203.407 274.768 203.407 272.248V231.424C203.407 228.832 202.903 227.824 201.751 227.176C201.751 227.032 201.751 226.6 201.751 226.6H210.679C210.679 226.6 210.679 227.032 210.679 227.176C209.599 227.824 209.095 228.832 209.095 231.424V276.496H215.647C223.639 276.496 229.543 272.392 232.927 268ZM264.77 253.744C268.874 254.824 272.618 259 272.042 265.552C271.61 270.664 267.074 277.432 256.85 277.432C246.914 277.432 237.338 272.536 237.05 260.656C236.69 248.2 247.994 242.8 255.914 242.368C262.034 242.08 270.458 245.032 271.466 253.744C270.818 253.744 266.354 253.744 266.354 253.744H264.77ZM252.674 243.232C247.778 244.168 244.61 248.272 243.314 253.168H266.282C265.346 246.904 259.73 241.864 252.674 243.232ZM271.394 265.696C272.258 258.208 267.29 253.744 261.818 253.744H243.17C242.234 257.56 242.45 261.808 243.674 265.264C246.338 272.824 251.738 276.136 259.082 275.848C265.274 275.56 270.674 271.312 271.394 265.696ZM302.614 264.256L302.974 264.4C301.606 271.168 298.582 277.432 291.022 277.432C284.614 277.432 280.654 273.256 280.654 264.76V242.944H276.406V242.368C282.526 242.368 283.03 235.96 283.03 232.504H288.718C288.718 238.048 283.246 242.152 278.926 242.368H294.838V242.944H286.342V265.84C286.342 272.104 288.07 276.928 294.19 276.136C298.942 275.488 301.318 269.8 302.614 264.256ZM308.367 225.808C310.455 225.808 312.255 227.608 312.255 229.768C312.255 233.656 309.807 237.112 305.775 240.352L305.415 239.992C308.223 237.544 310.095 235.384 310.959 232.576C310.239 233.224 309.375 233.656 308.367 233.656C306.207 233.656 304.407 231.856 304.407 229.768C304.407 227.608 306.207 225.808 308.367 225.808ZM332.664 242.368C336.408 242.368 341.304 244.744 344.184 246.976L342.744 253.6H342.384C340.152 247.48 335.544 243.016 331.44 243.016C326.544 243.016 323.808 245.752 323.448 248.704C322.44 258.352 346.704 255.76 345.912 267.496C345.48 273.184 340.152 277.432 332.088 277.432C326.256 277.432 321.936 275.488 318.048 272.608L319.56 265.408H319.92C322.368 270.448 327.768 276.424 334.176 276.424C339.36 276.424 343.248 273.76 343.68 270.664C345.048 261.232 319.92 265.408 321.648 251.296C322.224 246.616 324.816 242.368 332.664 242.368ZM403.402 276.496C403.402 276.64 403.402 277 403.402 277H396.13V257.704C394.762 266.056 391.09 277.432 381.01 277.432C375.178 277.432 367.978 272.392 367.69 263.176C367.258 245.392 383.818 242.368 391.81 242.368C393.466 242.368 394.906 242.656 396.13 243.016V230.632C396.13 228.112 395.914 227.392 394.474 227.176C394.474 227.032 394.474 226.6 394.474 226.6L401.314 225.088H401.818V272.248C401.818 274.768 402.322 275.848 403.402 276.496ZM384.25 276.136C392.314 274.552 396.13 259.504 396.13 253.456V243.376C395.77 243.304 394.114 242.728 391.81 242.728C384.826 242.872 372.298 245.896 373.306 264.256C373.666 270.52 378.058 277.288 384.25 276.136ZM427.982 242.368C437.63 242.368 445.982 248.416 445.982 258.352C445.982 269.872 436.118 277.432 426.47 277.432C416.75 277.432 408.47 271.528 408.47 261.448C408.47 249.568 418.334 242.368 427.982 242.368ZM432.014 276.136C440.222 273.76 442.454 264.76 439.934 256.048C437.414 247.408 430.646 241.288 422.438 243.664C414.23 246.04 411.998 255.04 414.518 263.752C417.038 272.392 423.806 278.584 432.014 276.136ZM93.9179 314.368C97.6619 314.368 102.558 316.744 105.438 318.976L103.998 325.6H103.638C101.406 319.48 96.7979 315.016 92.6939 315.016C87.7979 315.016 85.0619 317.752 84.7019 320.704C83.6939 330.352 107.958 327.76 107.166 339.496C106.734 345.184 101.406 349.432 93.3419 349.432C87.5099 349.432 83.1899 347.488 79.3019 344.608L80.8139 337.408H81.1739C83.6219 342.448 89.0219 348.424 95.4299 348.424C100.614 348.424 104.502 345.76 104.934 342.664C106.302 333.232 81.1739 337.408 82.9019 323.296C83.4779 318.616 86.0699 314.368 93.9179 314.368ZM131.087 314.368C140.735 314.368 149.087 320.416 149.087 330.352C149.087 341.872 139.223 349.432 129.575 349.432C119.855 349.432 111.575 343.528 111.575 333.448C111.575 321.568 121.439 314.368 131.087 314.368ZM135.119 348.136C143.327 345.76 145.559 336.76 143.039 328.048C140.519 319.408 133.751 313.288 125.543 315.664C117.335 318.04 115.103 327.04 117.623 335.752C120.143 344.392 126.911 350.584 135.119 348.136ZM206.746 344.248C207.034 346.84 207.682 347.848 208.762 348.496C208.762 348.64 208.762 349 208.762 349H199.906C199.906 349 199.906 348.64 199.906 348.496C200.986 347.848 201.346 346.624 201.13 344.248C200.842 341.872 199.834 329.704 199.474 325.96C198.898 320.56 196.81 314.44 191.194 315.664C184.57 317.104 183.706 328.264 183.634 335.824V344.248C183.634 346.768 184.138 347.848 185.218 348.496C185.218 348.64 185.218 349 185.218 349H176.362C176.362 349 176.362 348.64 176.362 348.496C177.442 347.848 177.946 346.768 177.946 344.248V325.96C177.946 320.488 175.426 314.584 169.81 315.664C161.746 317.176 161.386 332.224 161.386 338.344V344.248C161.386 346.768 161.962 347.848 163.042 348.496C163.042 348.64 163.042 349 163.042 349H154.114C154.114 349 154.114 348.64 154.114 348.496C155.194 347.848 155.77 346.768 155.77 344.248V319.912C155.77 317.392 155.554 316.672 154.114 316.456C154.114 316.312 154.114 315.952 154.114 315.952L160.882 314.368H161.386V330.352C162.178 322.72 164.338 314.368 172.978 314.368C178.522 314.368 183.274 319.12 183.562 327.04L183.634 327.832C184.498 320.848 187.162 314.368 194.434 314.368C200.122 314.368 204.154 318.616 205.018 327.04C205.81 334.024 206.458 341.584 206.746 344.248ZM240.195 325.744C244.299 326.824 248.043 331 247.467 337.552C247.035 342.664 242.499 349.432 232.275 349.432C222.339 349.432 212.763 344.536 212.475 332.656C212.115 320.2 223.419 314.8 231.339 314.368C237.459 314.08 245.883 317.032 246.891 325.744C246.243 325.744 241.779 325.744 241.779 325.744H240.195ZM228.099 315.232C223.203 316.168 220.035 320.272 218.739 325.168H241.707C240.771 318.904 235.155 313.864 228.099 315.232ZM246.819 337.696C247.683 330.208 242.715 325.744 237.243 325.744H218.595C217.659 329.56 217.875 333.808 219.099 337.264C221.763 344.824 227.163 348.136 234.507 347.848C240.699 347.56 246.099 343.312 246.819 337.696ZM278.04 336.256L278.4 336.4C277.032 343.168 274.008 349.432 266.448 349.432C260.04 349.432 256.08 345.256 256.08 336.76V314.944H251.832V314.368C257.952 314.368 258.456 307.96 258.456 304.504H264.144C264.144 310.048 258.672 314.152 254.352 314.368H270.264V314.944H261.768V337.84C261.768 344.104 263.496 348.928 269.616 348.136C274.368 347.488 276.744 341.8 278.04 336.256ZM313.385 344.248C313.673 346.84 314.321 347.848 315.401 348.496C315.401 348.64 315.401 349 315.401 349H306.545C306.545 349 306.545 348.64 306.545 348.496C307.625 347.848 307.985 346.624 307.769 344.248C307.481 341.872 306.473 329.704 306.113 325.96C305.537 320.56 302.873 314.44 296.681 315.664C288.617 317.248 287.177 332.296 287.177 338.344V344.248C287.177 346.768 287.681 347.848 288.761 348.496C288.761 348.64 288.761 349 288.761 349H279.833C279.833 349 279.833 348.64 279.833 348.496C280.985 347.848 281.489 346.768 281.489 344.248V302.632C281.489 300.112 281.273 299.392 279.833 299.176C279.833 299.032 279.833 298.6 279.833 298.6L286.601 297.088H287.177V332.224C288.041 324.16 290.561 314.368 299.921 314.368C305.753 314.368 310.793 318.4 311.657 327.04C312.449 334.024 313.097 341.584 313.385 344.248ZM326.269 344.248C326.269 346.768 326.773 347.848 327.925 348.496C327.925 348.64 327.925 349 327.925 349H318.997C318.997 349 318.997 348.64 318.997 348.496C320.077 347.848 320.581 346.768 320.581 344.248V319.912C320.581 317.392 320.365 316.672 318.997 316.456C318.997 316.312 318.997 315.952 318.997 315.952L325.765 314.368H326.269V344.248ZM323.245 308.536C321.373 308.536 319.861 307.024 319.861 305.152C319.861 303.28 321.373 301.768 323.245 301.768C325.117 301.768 326.629 303.28 326.629 305.152C326.629 307.024 325.117 308.536 323.245 308.536ZM366.541 344.248C366.829 346.84 367.477 347.848 368.557 348.496C368.557 348.64 368.557 349 368.557 349H359.629C359.629 349 359.629 348.64 359.629 348.496C360.781 347.848 361.069 346.624 360.853 344.248C360.637 341.872 359.557 329.704 359.197 325.96C358.693 320.56 356.029 314.44 349.837 315.664C341.773 317.248 340.261 332.296 340.261 338.344V344.248C340.261 346.768 340.765 347.848 341.917 348.496C341.917 348.64 341.917 349 341.917 349H332.989C332.989 349 332.989 348.64 332.989 348.496C334.069 347.848 334.573 346.768 334.573 344.248V319.912C334.573 317.392 334.357 316.672 332.989 316.456C332.989 316.312 332.989 315.952 332.989 315.952L339.757 314.368H340.261V332.224C341.197 324.16 343.645 314.368 353.005 314.368C358.909 314.368 363.949 318.4 364.813 327.04C365.533 334.024 366.253 341.584 366.541 344.248ZM409.449 347.056C413.769 346.984 415.425 349.432 415.425 352.6C415.425 358.288 408.225 361.96 402.105 361.96C396.921 361.96 394.401 359.152 392.673 356.776C389.361 358.792 385.761 360.664 382.377 360.88C378.561 361.168 375.681 359.8 375.609 356.488C375.465 352.096 382.377 349.72 387.417 349.216C378.993 348.208 372.153 342.592 372.153 333.448C372.153 321.568 382.089 314.368 391.737 314.368C394.617 314.368 397.353 314.944 399.801 315.952L412.113 312.352L412.545 315.952L400.953 316.456C406.137 318.976 409.737 323.8 409.737 330.352C409.737 341.872 399.873 349.432 390.153 349.432C389.937 349.432 389.721 349.432 389.433 349.36C384.681 349.576 379.137 351.232 379.497 355.552C379.641 357.928 380.865 359.656 383.529 359.656C387.201 359.728 391.377 356.92 395.985 354.112C401.313 350.944 405.777 347.2 409.449 347.056ZM378.273 335.752C380.793 344.392 387.561 350.584 395.769 348.136C403.905 345.76 406.209 336.76 403.689 328.048C401.169 319.408 394.401 313.288 386.193 315.664C377.985 318.04 375.753 327.04 378.273 335.752ZM411.033 353.824C411.177 350.512 410.313 348.064 407.433 348.496C405.201 348.784 400.593 351.88 396.417 354.472C395.337 355.12 394.257 355.768 393.177 356.416C394.545 358.432 396.777 361.384 402.105 361.456C407.649 361.528 410.745 358.576 411.033 353.824ZM441.496 337.264C444.16 344.824 450.28 348.856 457.552 348.136C464.68 347.416 468.568 341.08 469.72 339.064L470.152 339.28C467.92 343.312 463.672 348.928 455.104 349.432C445.168 349.936 435.232 344.536 434.944 332.656C434.584 320.2 445.888 314.368 453.808 314.368C457.912 314.368 463.672 316.24 467.416 318.184L466.336 324.16H465.904C464.176 319.84 457.336 313.648 450.568 315.232C441.712 317.248 438.472 328.624 441.496 337.264ZM493.97 314.368C503.618 314.368 511.97 320.416 511.97 330.352C511.97 341.872 502.106 349.432 492.458 349.432C482.738 349.432 474.458 343.528 474.458 333.448C474.458 321.568 484.322 314.368 493.97 314.368ZM498.002 348.136C506.21 345.76 508.442 336.76 505.922 328.048C503.402 319.408 496.634 313.288 488.426 315.664C480.218 318.04 477.986 327.04 480.506 335.752C483.026 344.392 489.794 350.584 498.002 348.136ZM536.509 314.368C546.157 314.368 554.509 320.416 554.509 330.352C554.509 341.872 544.645 349.432 534.997 349.432C525.277 349.432 516.997 343.528 516.997 333.448C516.997 321.568 526.861 314.368 536.509 314.368ZM540.541 348.136C548.749 345.76 550.981 336.76 548.461 328.048C545.941 319.408 539.173 313.288 530.965 315.664C522.757 318.04 520.525 327.04 523.045 335.752C525.565 344.392 532.333 350.584 540.541 348.136ZM566.808 344.248C566.808 346.768 567.312 347.848 568.392 348.496C568.392 348.64 568.392 349 568.392 349H559.536C559.536 349 559.536 348.64 559.536 348.496C560.616 347.848 561.12 346.768 561.12 344.248V302.632C561.12 300.112 560.904 299.392 559.536 299.176C559.536 299.032 559.536 298.6 559.536 298.6L566.304 297.088H566.808V344.248ZM213.808 370.6L216.112 379.384L215.68 379.6C212.44 375.928 207.904 371.176 199.912 371.176H198.328V416.248C198.328 418.768 198.904 419.848 199.984 420.496C199.984 420.64 199.984 421 199.984 421H191.056C191.056 421 191.056 420.64 191.056 420.496C192.136 419.848 192.712 418.768 192.712 416.248V371.176H191.128C183.136 371.176 178.6 375.928 175.36 379.6L174.928 379.384L177.232 370.6H213.808ZM234.201 386.368C243.849 386.368 252.201 392.416 252.201 402.352C252.201 413.872 242.337 421.432 232.689 421.432C222.969 421.432 214.689 415.528 214.689 405.448C214.689 393.568 224.553 386.368 234.201 386.368ZM238.233 420.136C246.441 417.76 248.673 408.76 246.153 400.048C243.633 391.408 236.865 385.288 228.657 387.664C220.449 390.04 218.217 399.04 220.737 407.752C223.257 416.392 230.025 422.584 238.233 420.136ZM294.524 419.056C298.844 418.984 300.5 421.432 300.5 424.6C300.5 430.288 293.3 433.96 287.18 433.96C281.996 433.96 279.476 431.152 277.748 428.776C274.436 430.792 270.836 432.664 267.452 432.88C263.636 433.168 260.756 431.8 260.684 428.488C260.54 424.096 267.452 421.72 272.492 421.216C264.068 420.208 257.228 414.592 257.228 405.448C257.228 393.568 267.164 386.368 276.812 386.368C279.692 386.368 282.428 386.944 284.876 387.952L297.188 384.352L297.62 387.952L286.028 388.456C291.212 390.976 294.812 395.8 294.812 402.352C294.812 413.872 284.948 421.432 275.228 421.432C275.012 421.432 274.796 421.432 274.508 421.36C269.756 421.576 264.212 423.232 264.572 427.552C264.716 429.928 265.94 431.656 268.604 431.656C272.276 431.728 276.452 428.92 281.06 426.112C286.388 422.944 290.852 419.2 294.524 419.056ZM263.348 407.752C265.868 416.392 272.636 422.584 280.844 420.136C288.98 417.76 291.284 408.76 288.764 400.048C286.244 391.408 279.476 385.288 271.268 387.664C263.06 390.04 260.828 399.04 263.348 407.752ZM296.108 425.824C296.252 422.512 295.388 420.064 292.508 420.496C290.276 420.784 285.668 423.88 281.492 426.472C280.412 427.12 279.332 427.768 278.252 428.416C279.62 430.432 281.852 433.384 287.18 433.456C292.724 433.528 295.82 430.576 296.108 425.824ZM328.262 397.744C332.366 398.824 336.11 403 335.534 409.552C335.102 414.664 330.566 421.432 320.342 421.432C310.406 421.432 300.83 416.536 300.542 404.656C300.182 392.2 311.486 386.8 319.406 386.368C325.526 386.08 333.95 389.032 334.958 397.744C334.31 397.744 329.846 397.744 329.846 397.744H328.262ZM316.166 387.232C311.27 388.168 308.102 392.272 306.806 397.168H329.774C328.838 390.904 323.222 385.864 316.166 387.232ZM334.886 409.696C335.75 402.208 330.782 397.744 325.31 397.744H306.662C305.726 401.56 305.942 405.808 307.166 409.264C309.83 416.824 315.23 420.136 322.574 419.848C328.766 419.56 334.166 415.312 334.886 409.696ZM366.106 408.256L366.466 408.4C365.098 415.168 362.074 421.432 354.514 421.432C348.106 421.432 344.146 417.256 344.146 408.76V386.944H339.898V386.368C346.018 386.368 346.522 379.96 346.522 376.504H352.21C352.21 382.048 346.738 386.152 342.418 386.368H358.33V386.944H349.834V409.84C349.834 416.104 351.562 420.928 357.682 420.136C362.434 419.488 364.81 413.8 366.106 408.256ZM401.452 416.248C401.74 418.84 402.388 419.848 403.468 420.496C403.468 420.64 403.468 421 403.468 421H394.612C394.612 421 394.612 420.64 394.612 420.496C395.692 419.848 396.052 418.624 395.836 416.248C395.548 413.872 394.54 401.704 394.18 397.96C393.604 392.56 390.94 386.44 384.748 387.664C376.684 389.248 375.244 404.296 375.244 410.344V416.248C375.244 418.768 375.748 419.848 376.828 420.496C376.828 420.64 376.828 421 376.828 421H367.9C367.9 421 367.9 420.64 367.9 420.496C369.052 419.848 369.556 418.768 369.556 416.248V374.632C369.556 372.112 369.34 371.392 367.9 371.176C367.9 371.032 367.9 370.6 367.9 370.6L374.668 369.088H375.244V404.224C376.108 396.16 378.628 386.368 387.988 386.368C393.82 386.368 398.86 390.4 399.724 399.04C400.516 406.024 401.164 413.584 401.452 416.248ZM434.856 397.744C438.96 398.824 442.704 403 442.128 409.552C441.696 414.664 437.16 421.432 426.936 421.432C417 421.432 407.424 416.536 407.136 404.656C406.776 392.2 418.08 386.8 426 386.368C432.12 386.08 440.544 389.032 441.552 397.744C440.904 397.744 436.44 397.744 436.44 397.744H434.856ZM422.76 387.232C417.864 388.168 414.696 392.272 413.4 397.168H436.368C435.432 390.904 429.816 385.864 422.76 387.232ZM441.48 409.696C442.344 402.208 437.376 397.744 431.904 397.744H413.256C412.32 401.56 412.536 405.808 413.76 409.264C416.424 416.824 421.824 420.136 429.168 419.848C435.36 419.56 440.76 415.312 441.48 409.696ZM464.924 386.368C468.812 386.368 471.044 387.736 473.492 390.616L469.1 396.808L468.596 396.52C468.452 392.416 466.436 387.088 462.548 387.664C455.492 388.744 454.556 407.32 454.556 413.44V416.248C454.556 418.768 455.06 419.848 456.14 420.496C456.14 420.64 456.14 421 456.14 421H447.212C447.212 421 447.212 420.64 447.212 420.496C448.364 419.848 448.868 418.768 448.868 416.248V391.912C448.868 389.392 448.652 388.672 447.212 388.456C447.212 388.312 447.212 387.952 447.212 387.952L453.98 386.368H454.556V405.664C455.276 396.952 457.292 386.368 464.924 386.368Z" fill="#F3F7FF"/>
<g filter="url(#filter0_b_1510_9372)">
<g clip-path="url(#clip0_1510_9372)">
<rect x="504" y="504" width="120" height="120" rx="60" fill="#F3F7FF"/>
<path d="M544.983 561V550.818H546.519V559.678H551.133V561H544.983ZM557.177 561.154C556.425 561.154 555.777 560.993 555.233 560.672C554.693 560.347 554.275 559.891 553.98 559.305C553.688 558.715 553.543 558.024 553.543 557.232C553.543 556.449 553.688 555.76 553.98 555.163C554.275 554.567 554.686 554.101 555.213 553.766C555.743 553.432 556.363 553.264 557.072 553.264C557.503 553.264 557.921 553.335 558.325 553.478C558.73 553.621 559.093 553.844 559.414 554.149C559.736 554.454 559.989 554.85 560.175 555.337C560.36 555.821 560.453 556.41 560.453 557.102V557.629H554.383V556.516H558.996C558.996 556.125 558.917 555.778 558.758 555.477C558.599 555.172 558.375 554.931 558.087 554.756C557.802 554.58 557.467 554.492 557.082 554.492C556.665 554.492 556.3 554.595 555.989 554.8C555.68 555.003 555.442 555.268 555.273 555.596C555.107 555.921 555.024 556.274 555.024 556.655V557.525C555.024 558.035 555.114 558.469 555.293 558.827C555.475 559.185 555.728 559.459 556.053 559.648C556.378 559.833 556.758 559.926 557.192 559.926C557.474 559.926 557.73 559.886 557.962 559.807C558.194 559.724 558.395 559.601 558.564 559.439C558.733 559.277 558.862 559.076 558.952 558.837L560.359 559.091C560.246 559.505 560.044 559.868 559.752 560.18C559.464 560.488 559.101 560.728 558.663 560.901C558.229 561.07 557.734 561.154 557.177 561.154ZM566.787 553.364V554.557H562.616V553.364H566.787ZM563.735 551.534H565.221V558.758C565.221 559.046 565.264 559.263 565.35 559.409C565.437 559.552 565.548 559.649 565.683 559.702C565.823 559.752 565.973 559.777 566.136 559.777C566.255 559.777 566.36 559.769 566.449 559.752C566.539 559.736 566.608 559.722 566.658 559.712L566.926 560.94C566.84 560.973 566.718 561.007 566.558 561.04C566.399 561.076 566.2 561.096 565.962 561.099C565.571 561.106 565.206 561.036 564.868 560.891C564.53 560.745 564.257 560.519 564.048 560.214C563.839 559.91 563.735 559.527 563.735 559.066V551.534ZM571.212 550.818V551.773C571.212 552.054 571.159 552.351 571.053 552.663C570.95 552.971 570.804 553.268 570.615 553.553C570.426 553.838 570.204 554.083 569.949 554.288L569.213 553.761C569.409 553.476 569.578 553.173 569.721 552.852C569.866 552.53 569.939 552.175 569.939 551.788V550.818H571.212ZM578.527 555.228L577.179 555.467C577.123 555.294 577.033 555.13 576.911 554.974C576.792 554.819 576.629 554.691 576.424 554.592C576.218 554.492 575.961 554.442 575.653 554.442C575.232 554.442 574.881 554.537 574.599 554.726C574.317 554.911 574.176 555.152 574.176 555.447C574.176 555.702 574.271 555.907 574.46 556.063C574.649 556.219 574.954 556.347 575.375 556.446L576.588 556.724C577.29 556.887 577.814 557.137 578.159 557.475C578.503 557.813 578.676 558.252 578.676 558.793C578.676 559.25 578.543 559.658 578.278 560.016C578.016 560.37 577.65 560.649 577.179 560.851C576.712 561.053 576.17 561.154 575.554 561.154C574.698 561.154 574.001 560.972 573.461 560.607C572.92 560.239 572.589 559.717 572.466 559.041L573.903 558.822C573.993 559.197 574.176 559.48 574.455 559.673C574.733 559.862 575.096 559.956 575.544 559.956C576.031 559.956 576.42 559.855 576.712 559.653C577.004 559.447 577.149 559.197 577.149 558.902C577.149 558.663 577.06 558.463 576.881 558.3C576.705 558.138 576.435 558.015 576.071 557.933L574.778 557.649C574.065 557.487 573.538 557.228 573.197 556.874C572.859 556.519 572.69 556.07 572.69 555.526C572.69 555.076 572.816 554.681 573.068 554.343C573.32 554.005 573.668 553.741 574.112 553.553C574.556 553.36 575.065 553.264 575.638 553.264C576.463 553.264 577.113 553.443 577.587 553.801C578.061 554.156 578.374 554.631 578.527 555.228ZM541.798 571.129H540.247C540.187 570.798 540.076 570.506 539.914 570.254C539.752 570.002 539.553 569.789 539.317 569.613C539.082 569.437 538.819 569.305 538.527 569.215C538.239 569.126 537.932 569.081 537.607 569.081C537.021 569.081 536.495 569.228 536.031 569.523C535.571 569.818 535.206 570.251 534.937 570.821C534.672 571.391 534.54 572.087 534.54 572.909C534.54 573.738 534.672 574.437 534.937 575.007C535.206 575.577 535.572 576.008 536.036 576.3C536.5 576.591 537.022 576.737 537.602 576.737C537.924 576.737 538.229 576.694 538.517 576.608C538.809 576.518 539.072 576.388 539.308 576.215C539.543 576.043 539.742 575.832 539.904 575.584C540.07 575.332 540.184 575.044 540.247 574.719L541.798 574.724C541.715 575.224 541.555 575.685 541.316 576.106C541.081 576.523 540.777 576.885 540.406 577.19C540.038 577.491 539.617 577.725 539.143 577.891C538.67 578.056 538.152 578.139 537.592 578.139C536.711 578.139 535.925 577.93 535.236 577.513C534.546 577.092 534.003 576.49 533.605 575.708C533.211 574.926 533.013 573.993 533.013 572.909C533.013 571.822 533.212 570.889 533.61 570.11C534.008 569.328 534.551 568.728 535.241 568.31C535.93 567.889 536.714 567.679 537.592 567.679C538.133 567.679 538.636 567.757 539.104 567.913C539.574 568.065 539.997 568.29 540.371 568.589C540.746 568.884 541.056 569.245 541.301 569.673C541.546 570.097 541.712 570.582 541.798 571.129ZM547.854 578.154C547.138 578.154 546.513 577.99 545.98 577.662C545.446 577.334 545.032 576.875 544.737 576.285C544.442 575.695 544.294 575.005 544.294 574.217C544.294 573.424 544.442 572.732 544.737 572.138C545.032 571.545 545.446 571.085 545.98 570.756C546.513 570.428 547.138 570.264 547.854 570.264C548.57 570.264 549.195 570.428 549.728 570.756C550.262 571.085 550.676 571.545 550.971 572.138C551.266 572.732 551.413 573.424 551.413 574.217C551.413 575.005 551.266 575.695 550.971 576.285C550.676 576.875 550.262 577.334 549.728 577.662C549.195 577.99 548.57 578.154 547.854 578.154ZM547.859 576.906C548.323 576.906 548.707 576.784 549.012 576.538C549.317 576.293 549.543 575.967 549.688 575.559C549.838 575.151 549.912 574.702 549.912 574.212C549.912 573.724 549.838 573.277 549.688 572.869C549.543 572.458 549.317 572.129 549.012 571.88C548.707 571.631 548.323 571.507 547.859 571.507C547.391 571.507 547.004 571.631 546.695 571.88C546.391 572.129 546.163 572.458 546.014 572.869C545.869 573.277 545.796 573.724 545.796 574.212C545.796 574.702 545.869 575.151 546.014 575.559C546.163 575.967 546.391 576.293 546.695 576.538C547.004 576.784 547.391 576.906 547.859 576.906ZM555.679 573.466V578H554.193V570.364H555.62V571.607H555.714C555.89 571.202 556.165 570.877 556.539 570.632C556.917 570.387 557.393 570.264 557.966 570.264C558.487 570.264 558.942 570.374 559.333 570.592C559.724 570.808 560.028 571.129 560.243 571.557C560.459 571.984 560.566 572.513 560.566 573.143V578H559.08V573.322C559.08 572.768 558.936 572.336 558.647 572.024C558.359 571.709 557.963 571.552 557.459 571.552C557.114 571.552 556.808 571.626 556.539 571.776C556.274 571.925 556.064 572.143 555.908 572.432C555.756 572.717 555.679 573.062 555.679 573.466ZM565.166 573.466V578H563.68V570.364H565.107V571.607H565.201C565.377 571.202 565.652 570.877 566.027 570.632C566.404 570.387 566.88 570.264 567.453 570.264C567.974 570.264 568.429 570.374 568.821 570.592C569.212 570.808 569.515 571.129 569.73 571.557C569.946 571.984 570.054 572.513 570.054 573.143V578H568.567V573.322C568.567 572.768 568.423 572.336 568.134 572.024C567.846 571.709 567.45 571.552 566.946 571.552C566.602 571.552 566.295 571.626 566.027 571.776C565.761 571.925 565.551 572.143 565.395 572.432C565.243 572.717 565.166 573.062 565.166 573.466ZM576.458 578.154C575.706 578.154 575.058 577.993 574.514 577.672C573.974 577.347 573.557 576.891 573.262 576.305C572.97 575.715 572.824 575.024 572.824 574.232C572.824 573.449 572.97 572.76 573.262 572.163C573.557 571.567 573.968 571.101 574.495 570.766C575.025 570.432 575.645 570.264 576.354 570.264C576.785 570.264 577.202 570.335 577.607 570.478C578.011 570.621 578.374 570.844 578.696 571.149C579.017 571.454 579.271 571.85 579.456 572.337C579.642 572.821 579.735 573.41 579.735 574.102V574.629H573.664V573.516H578.278C578.278 573.125 578.198 572.778 578.039 572.477C577.88 572.172 577.656 571.931 577.368 571.756C577.083 571.58 576.748 571.492 576.364 571.492C575.946 571.492 575.582 571.595 575.27 571.8C574.962 572.003 574.723 572.268 574.554 572.596C574.388 572.921 574.306 573.274 574.306 573.655V574.525C574.306 575.035 574.395 575.469 574.574 575.827C574.756 576.185 575.01 576.459 575.335 576.648C575.66 576.833 576.039 576.926 576.473 576.926C576.755 576.926 577.012 576.886 577.244 576.807C577.476 576.724 577.676 576.601 577.845 576.439C578.014 576.277 578.144 576.076 578.233 575.837L579.64 576.091C579.527 576.505 579.325 576.868 579.034 577.18C578.745 577.488 578.382 577.728 577.945 577.901C577.511 578.07 577.015 578.154 576.458 578.154ZM585.721 578.154C584.981 578.154 584.345 577.987 583.811 577.652C583.281 577.314 582.873 576.848 582.588 576.255C582.303 575.662 582.161 574.982 582.161 574.217C582.161 573.441 582.307 572.757 582.598 572.163C582.89 571.567 583.301 571.101 583.831 570.766C584.362 570.432 584.986 570.264 585.706 570.264C586.286 570.264 586.803 570.372 587.257 570.587C587.711 570.799 588.077 571.098 588.355 571.482C588.637 571.867 588.805 572.316 588.858 572.83H587.411C587.331 572.472 587.149 572.163 586.864 571.905C586.582 571.646 586.204 571.517 585.73 571.517C585.316 571.517 584.953 571.626 584.642 571.845C584.333 572.061 584.093 572.369 583.921 572.77C583.748 573.168 583.662 573.638 583.662 574.182C583.662 574.739 583.747 575.219 583.916 575.624C584.085 576.028 584.324 576.341 584.632 576.563C584.943 576.785 585.31 576.896 585.73 576.896C586.012 576.896 586.267 576.845 586.496 576.742C586.728 576.636 586.922 576.485 587.078 576.29C587.237 576.094 587.348 575.859 587.411 575.584H588.858C588.805 576.078 588.644 576.518 588.375 576.906C588.107 577.294 587.747 577.599 587.297 577.821C586.849 578.043 586.324 578.154 585.721 578.154ZM595.132 570.364V571.557H590.961V570.364H595.132ZM592.079 568.534H593.566V575.758C593.566 576.046 593.609 576.263 593.695 576.409C593.781 576.552 593.892 576.649 594.028 576.702C594.167 576.752 594.318 576.777 594.481 576.777C594.6 576.777 594.704 576.769 594.794 576.752C594.883 576.736 594.953 576.722 595.003 576.712L595.271 577.94C595.185 577.973 595.062 578.007 594.903 578.04C594.744 578.076 594.545 578.096 594.307 578.099C593.916 578.106 593.551 578.036 593.213 577.891C592.875 577.745 592.601 577.519 592.393 577.214C592.184 576.91 592.079 576.527 592.079 576.066V568.534Z" fill="#131519"/>
</g>
<rect x="504.5" y="504.5" width="119" height="119" rx="59.5" stroke="white"/>
<rect x="504.5" y="504.5" width="119" height="119" rx="59.5" stroke="#131519" stroke-opacity="0.1"/>
</g>
<defs>
<filter id="filter0_b_1510_9372" x="440" y="440" width="248" height="248" filterUnits="userSpaceOnUse" color-interpolation-filters="sRGB">
<feFlood flood-opacity="0" result="BackgroundImageFix"/>
<feGaussianBlur in="BackgroundImageFix" stdDeviation="32"/>
<feComposite in2="SourceAlpha" operator="in" result="effect1_backgroundBlur_1510_9372"/>
<feBlend mode="normal" in="SourceGraphic" in2="effect1_backgroundBlur_1510_9372" result="shape"/>
</filter>
<clipPath id="clip0_1510_9372">
<rect x="504" y="504" width="120" height="120" rx="60" fill="white"/>
</clipPath>
</defs>
</svg>
