<svg width="120" height="120" viewBox="0 0 120 120" fill="none" xmlns="http://www.w3.org/2000/svg">
<g filter="url(#filter0_b_1510_9374)">
<g clip-path="url(#clip0_1510_9374)">
<rect width="120" height="120" rx="60" fill="#F3F7FF"/>
<path d="M40.9827 57V46.8182H42.5189V55.6776H47.1325V57H40.9827ZM53.1769 57.1541C52.4245 57.1541 51.7766 56.9934 51.233 56.6719C50.6928 56.3471 50.2751 55.8913 49.9802 55.3047C49.6885 54.7147 49.5427 54.0237 49.5427 53.2315C49.5427 52.4493 49.6885 51.7599 49.9802 51.1634C50.2751 50.5668 50.6861 50.1011 51.2131 49.7663C51.7434 49.4316 52.3632 49.2642 53.0725 49.2642C53.5034 49.2642 53.921 49.3355 54.3253 49.478C54.7297 49.6205 55.0926 49.8442 55.4141 50.1491C55.7356 50.4541 55.9892 50.8501 56.1748 51.3374C56.3604 51.8213 56.4532 52.4096 56.4532 53.1023V53.6293H50.3829V52.5156H54.9965C54.9965 52.1245 54.9169 51.7782 54.7579 51.4766C54.5988 51.1716 54.375 50.9313 54.0867 50.7557C53.8017 50.58 53.4669 50.4922 53.0824 50.4922C52.6648 50.4922 52.3002 50.5949 51.9887 50.8004C51.6804 51.0026 51.4418 51.2678 51.2728 51.5959C51.107 51.9207 51.0242 52.2737 51.0242 52.6548V53.5249C51.0242 54.0353 51.1137 54.4695 51.2927 54.8274C51.4749 55.1854 51.7285 55.4588 52.0533 55.6477C52.3781 55.8333 52.7576 55.9261 53.1918 55.9261C53.4735 55.9261 53.7304 55.8864 53.9624 55.8068C54.1944 55.724 54.3949 55.6013 54.564 55.4389C54.733 55.2765 54.8623 55.076 54.9517 54.8374L56.3587 55.0909C56.246 55.5052 56.0438 55.8681 55.7522 56.1797C55.4638 56.4879 55.1009 56.7282 54.6634 56.9006C54.2292 57.0696 53.7337 57.1541 53.1769 57.1541ZM62.7871 49.3636V50.5568H58.616V49.3636H62.7871ZM59.7346 47.5341H61.2211V54.7578C61.2211 55.0462 61.2642 55.2633 61.3503 55.4091C61.4365 55.5516 61.5475 55.6494 61.6834 55.7024C61.8226 55.7521 61.9734 55.777 62.1358 55.777C62.2552 55.777 62.3596 55.7687 62.4491 55.7521C62.5385 55.7356 62.6081 55.7223 62.6579 55.7124L62.9263 56.9403C62.8402 56.9735 62.7175 57.0066 62.5584 57.0398C62.3993 57.0762 62.2005 57.0961 61.9618 57.0994C61.5707 57.1061 61.2062 57.0365 60.8681 56.8906C60.53 56.7448 60.2566 56.5194 60.0478 56.2145C59.839 55.9096 59.7346 55.5268 59.7346 55.0661V47.5341ZM67.212 46.8182V47.7727C67.212 48.0545 67.159 48.3511 67.0529 48.6626C66.9502 48.9709 66.8043 49.2675 66.6154 49.5526C66.4265 49.8376 66.2044 50.0829 65.9492 50.2884L65.2134 49.7614C65.409 49.4763 65.578 49.1731 65.7205 48.8516C65.8663 48.5301 65.9393 48.1754 65.9393 47.7876V46.8182H67.212ZM74.5266 51.228L73.1793 51.4666C73.1229 51.2943 73.0335 51.1302 72.9108 50.9744C72.7915 50.8187 72.6291 50.6911 72.4236 50.5916C72.2181 50.4922 71.9613 50.4425 71.653 50.4425C71.2321 50.4425 70.8808 50.5369 70.599 50.7259C70.3173 50.9115 70.1764 51.1518 70.1764 51.4467C70.1764 51.7019 70.2709 51.9074 70.4598 52.0632C70.6488 52.219 70.9537 52.3466 71.3746 52.446L72.5877 52.7244C73.2903 52.8868 73.814 53.1371 74.1587 53.4751C74.5034 53.8132 74.6757 54.2524 74.6757 54.7926C74.6757 55.25 74.5432 55.6577 74.278 56.0156C74.0162 56.3703 73.6499 56.6487 73.1793 56.8509C72.712 57.053 72.1701 57.1541 71.5536 57.1541C70.6985 57.1541 70.0008 56.9718 69.4605 56.6072C68.9203 56.2393 68.5889 55.7173 68.4662 55.0412L69.903 54.8224C69.9925 55.197 70.1764 55.4804 70.4549 55.6726C70.7333 55.8615 71.0962 55.956 71.5436 55.956C72.0309 55.956 72.4203 55.8549 72.712 55.6527C73.0036 55.4472 73.1495 55.197 73.1495 54.902C73.1495 54.6634 73.06 54.4628 72.881 54.3004C72.7053 54.138 72.4352 54.0154 72.0706 53.9325L70.778 53.6491C70.0654 53.4867 69.5384 53.2282 69.197 52.8736C68.859 52.5189 68.6899 52.0698 68.6899 51.5263C68.6899 51.0755 68.8159 50.6811 69.0678 50.343C69.3197 50.005 69.6677 49.7415 70.1118 49.5526C70.5559 49.3603 71.0647 49.2642 71.6381 49.2642C72.4634 49.2642 73.113 49.4432 73.587 49.8011C74.0609 50.1558 74.3741 50.6314 74.5266 51.228ZM37.7983 67.1293H36.2472C36.1875 66.7978 36.0765 66.5062 35.9141 66.2543C35.7517 66.0024 35.5528 65.7886 35.3175 65.6129C35.0821 65.4373 34.8187 65.3047 34.527 65.2152C34.2386 65.1257 33.9321 65.081 33.6072 65.081C33.0206 65.081 32.4953 65.2285 32.0312 65.5234C31.5705 65.8184 31.206 66.2509 30.9375 66.821C30.6723 67.3911 30.5398 68.0871 30.5398 68.9091C30.5398 69.7377 30.6723 70.437 30.9375 71.0071C31.206 71.5772 31.5722 72.008 32.0362 72.2997C32.5002 72.5914 33.0222 72.7372 33.6023 72.7372C33.9238 72.7372 34.2287 72.6941 34.517 72.608C34.8087 72.5185 35.0722 72.3875 35.3075 72.2152C35.5428 72.0429 35.7417 71.8324 35.9041 71.5838C36.0698 71.3319 36.1842 71.0436 36.2472 70.7188L37.7983 70.7237C37.7154 71.2242 37.5547 71.6849 37.316 72.1058C37.0807 72.5234 36.7775 72.8847 36.4062 73.1896C36.0383 73.4912 35.6174 73.7249 35.1435 73.8906C34.6695 74.0563 34.1525 74.1392 33.5923 74.1392C32.7107 74.1392 31.9252 73.9304 31.2358 73.5128C30.5464 73.0919 30.0028 72.4903 29.6051 71.7081C29.2107 70.9259 29.0135 69.9929 29.0135 68.9091C29.0135 67.822 29.2124 66.889 29.6101 66.1101C30.0078 65.3279 30.5514 64.728 31.2408 64.3104C31.9302 63.8894 32.714 63.679 33.5923 63.679C34.1326 63.679 34.6364 63.7569 35.1037 63.9126C35.5743 64.0651 35.9969 64.2905 36.3714 64.5888C36.746 64.8838 37.0559 65.245 37.3011 65.6726C37.5464 66.0968 37.7121 66.5824 37.7983 67.1293ZM43.8538 74.1541C43.1379 74.1541 42.5132 73.9901 41.9795 73.6619C41.4459 73.3338 41.0316 72.8748 40.7367 72.2848C40.4417 71.6948 40.2942 71.0054 40.2942 70.2166C40.2942 69.4245 40.4417 68.7318 40.7367 68.1385C41.0316 67.5452 41.4459 67.0845 41.9795 66.7564C42.5132 66.4283 43.1379 66.2642 43.8538 66.2642C44.5697 66.2642 45.1945 66.4283 45.7281 66.7564C46.2617 67.0845 46.676 67.5452 46.971 68.1385C47.266 68.7318 47.4135 69.4245 47.4135 70.2166C47.4135 71.0054 47.266 71.6948 46.971 72.2848C46.676 72.8748 46.2617 73.3338 45.7281 73.6619C45.1945 73.9901 44.5697 74.1541 43.8538 74.1541ZM43.8588 72.9062C44.3228 72.9062 44.7073 72.7836 45.0122 72.5384C45.3171 72.2931 45.5425 71.9666 45.6884 71.5589C45.8375 71.1513 45.9121 70.7022 45.9121 70.2116C45.9121 69.7244 45.8375 69.277 45.6884 68.8693C45.5425 68.4583 45.3171 68.1286 45.0122 67.88C44.7073 67.6314 44.3228 67.5071 43.8588 67.5071C43.3915 67.5071 43.0037 67.6314 42.6955 67.88C42.3905 68.1286 42.1635 68.4583 42.0143 68.8693C41.8685 69.277 41.7956 69.7244 41.7956 70.2116C41.7956 70.7022 41.8685 71.1513 42.0143 71.5589C42.1635 71.9666 42.3905 72.2931 42.6955 72.5384C43.0037 72.7836 43.3915 72.9062 43.8588 72.9062ZM51.6793 69.4659V74H50.1928V66.3636H51.6196V67.6065H51.7141C51.8897 67.2022 52.1648 66.8774 52.5394 66.6321C52.9172 66.3868 53.3928 66.2642 53.9662 66.2642C54.4866 66.2642 54.9423 66.3736 55.3334 66.5923C55.7245 66.8078 56.0278 67.1293 56.2432 67.5568C56.4586 67.9844 56.5663 68.513 56.5663 69.1428V74H55.0798V69.3217C55.0798 68.7682 54.9357 68.3357 54.6473 68.0241C54.359 67.7093 53.9629 67.5518 53.4591 67.5518C53.1144 67.5518 52.8078 67.6264 52.5394 67.7756C52.2742 67.9247 52.0637 68.1435 51.908 68.4318C51.7555 68.7169 51.6793 69.0616 51.6793 69.4659ZM61.1665 69.4659V74H59.68V66.3636H61.1068V67.6065H61.2013C61.3769 67.2022 61.652 66.8774 62.0265 66.6321C62.4044 66.3868 62.88 66.2642 63.4534 66.2642C63.9738 66.2642 64.4295 66.3736 64.8206 66.5923C65.2117 66.8078 65.5149 67.1293 65.7304 67.5568C65.9458 67.9844 66.0535 68.513 66.0535 69.1428V74H64.567V69.3217C64.567 68.7682 64.4229 68.3357 64.1345 68.0241C63.8461 67.7093 63.4501 67.5518 62.9463 67.5518C62.6016 67.5518 62.295 67.6264 62.0265 67.7756C61.7614 67.9247 61.5509 68.1435 61.3952 68.4318C61.2427 68.7169 61.1665 69.0616 61.1665 69.4659ZM72.4583 74.1541C71.706 74.1541 71.058 73.9934 70.5144 73.6719C69.9742 73.3471 69.5566 72.8913 69.2616 72.3047C68.9699 71.7147 68.8241 71.0237 68.8241 70.2315C68.8241 69.4493 68.9699 68.7599 69.2616 68.1634C69.5566 67.5668 69.9676 67.1011 70.4946 66.7663C71.0249 66.4316 71.6446 66.2642 72.3539 66.2642C72.7848 66.2642 73.2024 66.3355 73.6068 66.478C74.0111 66.6205 74.3741 66.8442 74.6955 67.1491C75.017 67.4541 75.2706 67.8501 75.4562 68.3374C75.6418 68.8213 75.7346 69.4096 75.7346 70.1023V70.6293H69.6643V69.5156H74.2779C74.2779 69.1245 74.1984 68.7782 74.0393 68.4766C73.8802 68.1716 73.6565 67.9313 73.3681 67.7557C73.0831 67.58 72.7483 67.4922 72.3639 67.4922C71.9463 67.4922 71.5817 67.5949 71.2701 67.8004C70.9619 68.0026 70.7232 68.2678 70.5542 68.5959C70.3885 68.9207 70.3056 69.2737 70.3056 69.6548V70.5249C70.3056 71.0353 70.3951 71.4695 70.5741 71.8274C70.7564 72.1854 71.0099 72.4588 71.3348 72.6477C71.6596 72.8333 72.0391 72.9261 72.4732 72.9261C72.755 72.9261 73.0118 72.8864 73.2438 72.8068C73.4759 72.724 73.6764 72.6013 73.8454 72.4389C74.0144 72.2765 74.1437 72.076 74.2332 71.8374L75.6402 72.0909C75.5275 72.5052 75.3253 72.8681 75.0336 73.1797C74.7453 73.4879 74.3823 73.7282 73.9448 73.9006C73.5107 74.0696 73.0152 74.1541 72.4583 74.1541ZM81.7206 74.1541C80.9814 74.1541 80.3451 73.9867 79.8115 73.652C79.2812 73.3139 78.8735 72.8482 78.5885 72.255C78.3034 71.6617 78.1609 70.9822 78.1609 70.2166C78.1609 69.4411 78.3067 68.7566 78.5984 68.1634C78.8901 67.5668 79.301 67.1011 79.8314 66.7663C80.3617 66.4316 80.9864 66.2642 81.7056 66.2642C82.2857 66.2642 82.8027 66.3719 83.2568 66.5874C83.7108 66.7995 84.0771 67.0978 84.3555 67.4822C84.6372 67.8667 84.8046 68.3158 84.8576 68.8295H83.4109C83.3314 68.4716 83.1491 68.1634 82.864 67.9048C82.5823 67.6463 82.2045 67.517 81.7305 67.517C81.3162 67.517 80.9533 67.6264 80.6417 67.8452C80.3335 68.0606 80.0932 68.3688 79.9208 68.7699C79.7485 69.1676 79.6623 69.6383 79.6623 70.1818C79.6623 70.7386 79.7468 71.2192 79.9159 71.6236C80.0849 72.0279 80.3235 72.3411 80.6318 72.5632C80.9433 72.7853 81.3096 72.8963 81.7305 72.8963C82.0122 72.8963 82.2674 72.8449 82.4961 72.7422C82.7281 72.6361 82.922 72.4853 83.0778 72.2898C83.2369 72.0942 83.3479 71.8589 83.4109 71.5838H84.8576C84.8046 72.0777 84.6439 72.5185 84.3754 72.9062C84.1069 73.294 83.7473 73.599 83.2965 73.821C82.8491 74.0431 82.3238 74.1541 81.7206 74.1541ZM91.1319 66.3636V67.5568H86.9608V66.3636H91.1319ZM88.0794 64.5341H89.5659V71.7578C89.5659 72.0462 89.609 72.2633 89.6951 72.4091C89.7813 72.5516 89.8923 72.6494 90.0282 72.7024C90.1674 72.7521 90.3182 72.777 90.4807 72.777C90.6 72.777 90.7044 72.7687 90.7939 72.7521C90.8833 72.7356 90.953 72.7223 91.0027 72.7124L91.2711 73.9403C91.185 73.9735 91.0623 74.0066 90.9032 74.0398C90.7441 74.0762 90.5453 74.0961 90.3066 74.0994C89.9155 74.1061 89.551 74.0365 89.2129 73.8906C88.8748 73.7448 88.6014 73.5194 88.3926 73.2145C88.1838 72.9096 88.0794 72.5268 88.0794 72.0661V64.5341Z" fill="#131519"/>
</g>
<rect x="0.5" y="0.5" width="119" height="119" rx="59.5" stroke="white"/>
<rect x="0.5" y="0.5" width="119" height="119" rx="59.5" stroke="#131519" stroke-opacity="0.1"/>
</g>
<defs>
<filter id="filter0_b_1510_9374" x="-64" y="-64" width="248" height="248" filterUnits="userSpaceOnUse" color-interpolation-filters="sRGB">
<feFlood flood-opacity="0" result="BackgroundImageFix"/>
<feGaussianBlur in="BackgroundImageFix" stdDeviation="32"/>
<feComposite in2="SourceAlpha" operator="in" result="effect1_backgroundBlur_1510_9374"/>
<feBlend mode="normal" in="SourceGraphic" in2="effect1_backgroundBlur_1510_9374" result="shape"/>
</filter>
<clipPath id="clip0_1510_9374">
<rect width="120" height="120" rx="60" fill="white"/>
</clipPath>
</defs>
</svg>
